<svg width="653" height="226" viewBox="0 0 653 226" xmlns="http://www.w3.org/2000/svg"><title>logo</title><g fill="#000" fill-rule="evenodd"><path d="M104.5 86.037C92.681 74.884 83.561 66.263 82.55 65.264c-3.052-3.053-2.022-5.916-1.106-8.091 7.669-18.015-.992-34.236-9.233-42.938C63.703 5.189 52.715 2.289 47.564 2.022c-5.112-.268-12.018 1.946-16.863 6.793l21.556 21.641-3.777 21.03-21.022 3.817L5.9 33.662C.446 39.12-1.27 45.646-.966 50.57c.305 4.962 2.136 14.656 12.17 24.694 10.035 10.038 29.378 16.145 42.96 9.122 1.947-.992 4.846-2.061 8.09 1.107 1.156 1.133 9.452 9.905 20.212 21.324-19.478 18.362-38.045 35.85-38.045 35.85-7.402 6.374-6.868 18.168-.039 25.038 6.944 6.832 18.657 7.251 25.029-.115 0 0 17.01-18.126 35.089-37.357 18.08 19.231 35.09 37.357 35.09 37.357 6.37 7.366 18.084 6.947 25.028.115 6.829-6.87 7.363-18.664-.039-25.038 0 0-18.567-17.488-38.045-35.85 10.76-11.42 19.056-20.191 20.213-21.324 3.243-3.168 6.142-2.1 8.088-1.107 13.583 7.023 32.926.916 42.96-9.122 10.035-10.038 11.866-19.732 12.171-24.694.305-4.924-1.412-11.45-6.867-16.908l-21.557 21.64-21.022-3.816-3.777-21.03 21.556-21.64c-4.845-4.848-11.75-7.062-16.863-6.794-5.151.267-16.139 3.167-24.647 12.213-8.241 8.702-16.902 24.923-9.233 42.938.916 2.175 1.946 5.038-1.107 8.091-1.01.999-10.13 9.62-21.949 20.773zm-42.796 72.927c-2.404 2.367-6.295 2.367-8.66 0-2.366-2.404-2.366-6.297 0-8.663 2.403-2.367 6.294-2.367 8.66 0 2.365 2.404 2.365 6.297 0 8.663zm85.592 0c2.404 2.367 6.295 2.367 8.66 0 2.366-2.404 2.366-6.297 0-8.663-2.403-2.367-6.294-2.367-8.66 0-2.365 2.404-2.365 6.297 0 8.663zM240.32 1.62h11.664V70.2h15.444V81H240.32V1.62zm31.86 0h11.664V81H272.18V1.62zm20.304 0h26.676v11.988h-15.012v20.844h10.8v12.744h-10.8v21.816h15.012V81h-26.676V1.62zm51.84 28.512V17.928c0-2.16-.432-3.672-1.512-4.968-.54-.54-1.404-.864-2.376-.864-2.052 0-3.024 1.512-3.456 2.916-.324.864-.432 1.836-.432 2.916v47.736c0 2.268.54 3.78 1.62 4.968.54.54 1.296.864 2.268.864 2.052 0 3.024-1.296 3.456-2.916.324-.756.432-1.728.432-2.916V51.3h-4.644v-9.828h16.308V81h-6.912l-1.404-3.78c-2.16 2.7-5.292 4.644-9.072 4.644-3.78 0-6.372-.972-8.316-2.7-1.944-1.62-3.24-3.672-4.104-5.832-.972-2.484-1.404-5.4-1.296-8.64V17.928c.108-3.132.756-6.048 1.944-8.532.972-2.16 2.376-4.32 4.536-5.94 2.16-1.62 5.184-2.7 9.072-2.7 3.888 0 6.804 1.08 8.964 2.7s3.672 3.78 4.644 5.94c1.188 2.484 1.836 5.4 1.944 8.532v12.204h-11.664zM364.52 1.62h26.676v11.988h-15.012v20.844h10.8v12.744h-10.8v21.816h15.012V81H364.52V1.62zM261.056 138.44h-9.072V173H240.32V93.62h11.664v32.832h9.072V93.62h11.664V173h-11.664v-34.56zM278.12 173l11.988-79.38h14.256L316.352 173h-11.34l-2.16-16.2H291.62l-2.16 16.2h-11.34zm19.764-53.568l-.324-2.052h-.648l-.324 2.052-3.348 25.056h7.992l-3.348-25.056zm54.216 26.352v10.908c-.108 3.24-.756 6.156-1.944 8.64a14.86 14.86 0 0 1-4.644 5.832c-2.16 1.728-5.076 2.7-8.964 2.7-3.888 0-6.912-.972-9.072-2.7-2.16-1.62-3.564-3.672-4.536-5.832-1.188-2.484-1.836-5.4-1.944-8.64v-46.764c.108-3.132.756-6.048 1.944-8.532.972-2.16 2.376-4.32 4.536-5.94 2.16-1.62 5.184-2.7 9.072-2.7 3.888 0 6.804 1.08 8.964 2.7s3.672 3.78 4.644 5.94c1.188 2.484 1.836 5.4 1.944 8.532v10.908h-10.908v-10.908c0-2.16-.54-3.672-1.728-4.968-.54-.54-1.512-.864-2.7-.864-2.052 0-3.024 1.512-3.564 2.916-.324.864-.432 1.836-.54 2.916v46.764c.108 2.268.756 3.78 1.836 4.968.54.54 1.296.864 2.268.864 2.484 0 3.456-1.296 3.996-2.916.324-.756.432-1.728.432-2.916v-10.908H352.1zm18.684-52.164v27.756h.432l.54-1.296 9.72-26.46h11.34l-10.692 26.136L394.22 173h-11.34l-8.1-34.56-.324-1.62h-.324l-.648 1.62-2.7 6.48V173H359.12V93.62h11.664zm28.836 0h26.676v11.988h-15.012v20.844h10.8v12.744h-10.8v21.816h15.012V173H399.62V93.62zm54 79.38l-6.048-33.48h-3.132V173h-11.664V93.62h11.664c13.932 0 19.872 7.884 19.872 22.896 0 7.884-2.052 15.012-6.48 18.036L465.284 173H453.62zm-9.18-44.28c1.62 0 3.78-.216 5.508-1.728 1.728-1.512 3.132-4.428 3.132-10.044 0-5.616-1.404-8.64-3.132-10.152-1.728-1.512-3.888-1.62-5.508-1.62v23.544zm46.656-13.824c0-2.592-.108-5.508-.864-7.776-.756-2.16-1.944-3.672-3.78-3.672-3.024.108-3.996 3.24-3.996 7.884 0 2.7 1.188 5.508 2.916 8.532s3.996 6.156 6.264 9.504c2.7 3.996 5.4 8.1 7.452 12.096 2.052 3.996 3.456 8.1 3.456 12.42 0 5.292-.864 10.26-3.348 13.932-2.484 3.672-6.48 6.048-12.852 6.048-7.452 0-11.664-2.808-14.04-7.128-2.376-4.32-2.916-10.044-2.916-15.984l11.448-1.08c0 3.348.108 6.696.972 9.18.756 2.592 2.052 4.32 4.536 4.32 3.456 0 4.752-3.672 4.752-8.748 0-2.592-1.296-5.616-3.024-8.748-.972-1.512-1.944-3.132-3.024-4.752a374.85 374.85 0 0 1-7.344-10.908c-2.592-3.996-4.536-8.1-5.724-12.312a21.206 21.206 0 0 1-.972-6.372c0-4.32.972-8.964 3.456-12.528 2.484-3.456 6.264-5.94 11.772-6.048 7.02-.108 11.124 2.808 13.392 7.02 2.268 4.32 2.916 9.612 2.916 14.04l-11.448 1.08zm17.712-21.276h11.664c5.076 0 10.152 1.296 14.04 4.968 3.888 3.672 6.48 9.72 6.48 18.792 0 9.072-2.592 15.012-6.48 18.684-3.888 3.672-8.964 5.184-14.04 5.184V173h-11.664V93.62zm11.664 35.748c3.564 0 5.832-.648 7.128-2.484 1.296-1.728 1.62-4.644 1.62-9.072 0-4.428-.324-7.56-1.62-9.504s-3.564-2.808-7.128-2.808v23.868zM543.584 173l11.988-79.38h14.256L581.816 173h-11.34l-2.16-16.2h-11.232l-2.16 16.2h-11.34zm19.764-53.568l-.324-2.052h-.648l-.324 2.052-3.348 25.056h7.992l-3.348-25.056zm54.216 26.352v10.908c-.108 3.24-.756 6.156-1.944 8.64a14.86 14.86 0 0 1-4.644 5.832c-2.16 1.728-5.076 2.7-8.964 2.7-3.888 0-6.912-.972-9.072-2.7-2.16-1.62-3.564-3.672-4.536-5.832-1.188-2.484-1.836-5.4-1.944-8.64v-46.764c.108-3.132.756-6.048 1.944-8.532.972-2.16 2.376-4.32 4.536-5.94 2.16-1.62 5.184-2.7 9.072-2.7 3.888 0 6.804 1.08 8.964 2.7s3.672 3.78 4.644 5.94c1.188 2.484 1.836 5.4 1.944 8.532v10.908h-10.908v-10.908c0-2.16-.54-3.672-1.728-4.968-.54-.54-1.512-.864-2.7-.864-2.052 0-3.024 1.512-3.564 2.916-.324.864-.432 1.836-.54 2.916v46.764c.108 2.268.756 3.78 1.836 4.968.54.54 1.296.864 2.268.864 2.484 0 3.456-1.296 3.996-2.916.324-.756.432-1.728.432-2.916v-10.908h10.908zm7.02-52.164h26.676v11.988h-15.012v20.844h10.8v12.744h-10.8v21.816h15.012V173h-26.676V93.62z"/><g><path d="M1.463 207H120v-2H0v2h1.463zM508.756 207H651v-2H507v2h1.756zM150 189.982h5.605v27.79h7.42v4.377H150v-32.167zm15.309 0h12.818v4.858h-7.213v8.447h5.19v5.164h-5.19v8.84h7.213v4.858h-12.818v-32.167zm14.479 32.167l5.76-32.167h6.85l5.76 32.167h-5.449l-1.037-6.565h-5.398l-1.037 6.565h-5.45zm9.496-21.707l-.155-.831h-.312l-.155.831-1.61 10.153h3.841l-1.609-10.153zm21.485 21.707l-2.906-13.567h-1.505v13.567h-5.605v-32.167h5.605c6.694 0 9.548 3.195 9.548 9.278 0 3.195-.986 6.084-3.113 7.309l3.58 15.58h-5.604zm-4.411-17.943c.778 0 1.816-.088 2.646-.7.83-.613 1.505-1.795 1.505-4.07 0-2.276-.674-3.502-1.505-4.114-.83-.613-1.868-.657-2.646-.657v9.54zm19.045 1.181l-.467-1.488h-.311v18.25h-5.138v-32.167h4.982l5.449 16.762.467 1.488h.311v-18.25h5.138v32.167h-4.982l-5.449-16.762zM265.777 226h-4.255l-15.413-40h4.1l15.568 40zm19.565-3.851l-3.581-20.219-.208-1.357h-.311v21.576h-5.19v-32.167h6.85l3.322 14.705.26 1.707h.103l.26-1.707 3.32-14.705h6.85v32.167h-5.189v-21.576h-.31l-.209 1.357-3.58 20.219h-2.387zm14.27 0l5.761-32.167h6.85l5.76 32.167h-5.449l-1.037-6.565h-5.398l-1.037 6.565h-5.45zm9.497-21.707l-.155-.831h-.312l-.155.831-1.61 10.153h3.841l-1.609-10.153zm17.074-10.46v11.248h.207l.26-.525 4.67-10.723h5.45l-5.138 10.591 5.812 21.576h-5.449l-3.892-14.005-.156-.656h-.156l-.31.656-1.298 2.626v11.379h-5.605v-32.167h5.605zm13.856 0h12.818v4.858h-7.214v8.447h5.19v5.164h-5.19v8.84h7.214v4.858h-12.818v-32.167zM381.762 226h-4.255l-15.413-40h4.1l15.568 40zm19.564-27.396c0-1.05-.051-2.232-.415-3.151-.363-.875-.934-1.488-1.816-1.488-1.453.044-1.92 1.313-1.92 3.195 0 1.094.57 2.232 1.401 3.457.83 1.225 1.92 2.495 3.01 3.851 1.297 1.62 2.595 3.283 3.58 4.902.987 1.62 1.661 3.282 1.661 5.033 0 2.144-.415 4.157-1.608 5.645-1.194 1.488-3.114 2.45-6.176 2.45-3.58 0-5.605-1.137-6.746-2.887-1.142-1.751-1.401-4.07-1.401-6.478l5.5-.437c0 1.357.052 2.713.467 3.72.364 1.05.986 1.75 2.18 1.75 1.66 0 2.283-1.488 2.283-3.545 0-1.05-.622-2.275-1.453-3.544-.467-.613-.934-1.27-1.453-1.926a153.21 153.21 0 0 1-3.529-4.42c-1.245-1.62-2.18-3.282-2.75-4.99a7.364 7.364 0 0 1-.467-2.581c0-1.75.467-3.633 1.66-5.077 1.194-1.4 3.01-2.407 5.657-2.45 3.373-.044 5.345 1.137 6.435 2.844 1.09 1.75 1.401 3.895 1.401 5.69l-5.5.437zm18.475 9.54h-4.36v14.005h-5.604v-32.167h5.605v13.305h4.359v-13.305h5.605v32.167H419.8v-14.005zm8.2 14.005l5.76-32.167h6.85l5.76 32.167h-5.449l-1.038-6.565h-5.397l-1.038 6.565H428zm9.496-21.707l-.156-.831h-.311l-.156.831-1.608 10.153h3.84l-1.609-10.153zm21.484 21.707l-2.906-13.567h-1.505v13.567h-5.604v-32.167h5.604c6.695 0 9.55 3.195 9.55 9.278 0 3.195-.987 6.084-3.115 7.309l3.581 15.58h-5.605zm-4.41-17.943c.778 0 1.816-.088 2.646-.7.83-.613 1.505-1.795 1.505-4.07 0-2.276-.675-3.502-1.505-4.114-.83-.613-1.868-.657-2.647-.657v9.54zm13.129-14.224h12.818v4.858h-7.214v8.447h5.19v5.164h-5.19v8.84h7.214v4.858H467.7v-32.167z"/></g></g></svg>