<svg width="704" height="272" viewBox="0 0 704 272" xmlns="http://www.w3.org/2000/svg"><title>logo</title><defs><filter x="-50%" y="-50%" width="200%" height="200%" filterUnits="objectBoundingBox" id="a"><feOffset dy="2" in="SourceAlpha" result="shadowOffsetOuter1"/><feGaussianBlur stdDeviation="2" in="shadowOffsetOuter1" result="shadowBlurOuter1"/><feColorMatrix values="0 0 0 0 0 0 0 0 0 0 0 0 0 0 0 0 0 0 0.14 0" in="shadowBlurOuter1" result="shadowMatrixOuter1"/><feMerge><feMergeNode in="shadowMatrixOuter1"/><feMergeNode in="SourceGraphic"/></feMerge></filter><filter x="-50%" y="-50%" width="200%" height="200%" filterUnits="objectBoundingBox" id="b"><feOffset dy="2" in="SourceAlpha" result="shadowOffsetOuter1"/><feGaussianBlur stdDeviation="2" in="shadowOffsetOuter1" result="shadowBlurOuter1"/><feColorMatrix values="0 0 0 0 0 0 0 0 0 0 0 0 0 0 0 0 0 0 0.14 0" in="shadowBlurOuter1" result="shadowMatrixOuter1"/><feMerge><feMergeNode in="shadowMatrixOuter1"/><feMergeNode in="SourceGraphic"/></feMerge></filter><filter x="-50%" y="-50%" width="200%" height="200%" filterUnits="objectBoundingBox" id="c"><feOffset dy="2" in="SourceAlpha" result="shadowOffsetOuter1"/><feGaussianBlur stdDeviation="2" in="shadowOffsetOuter1" result="shadowBlurOuter1"/><feColorMatrix values="0 0 0 0 0 0 0 0 0 0 0 0 0 0 0 0 0 0 0.14 0" in="shadowBlurOuter1" result="shadowMatrixOuter1"/><feMerge><feMergeNode in="shadowMatrixOuter1"/><feMergeNode in="SourceGraphic"/></feMerge></filter><filter x="-50%" y="-50%" width="200%" height="200%" filterUnits="objectBoundingBox" id="d"><feOffset dy="2" in="SourceAlpha" result="shadowOffsetOuter1"/><feGaussianBlur stdDeviation="2" in="shadowOffsetOuter1" result="shadowBlurOuter1"/><feColorMatrix values="0 0 0 0 0 0 0 0 0 0 0 0 0 0 0 0 0 0 0.14 0" in="shadowBlurOuter1" result="shadowMatrixOuter1"/><feMerge><feMergeNode in="shadowMatrixOuter1"/><feMergeNode in="SourceGraphic"/></feMerge></filter><filter x="-50%" y="-50%" width="200%" height="200%" filterUnits="objectBoundingBox" id="e"><feOffset dy="2" in="SourceAlpha" result="shadowOffsetOuter1"/><feGaussianBlur stdDeviation="2" in="shadowOffsetOuter1" result="shadowBlurOuter1"/><feColorMatrix values="0 0 0 0 0 0 0 0 0 0 0 0 0 0 0 0 0 0 0.14 0" in="shadowBlurOuter1" result="shadowMatrixOuter1"/><feMerge><feMergeNode in="shadowMatrixOuter1"/><feMergeNode in="SourceGraphic"/></feMerge></filter><filter x="-50%" y="-50%" width="200%" height="200%" filterUnits="objectBoundingBox" id="f"><feOffset dy="2" in="SourceAlpha" result="shadowOffsetOuter1"/><feGaussianBlur stdDeviation="2" in="shadowOffsetOuter1" result="shadowBlurOuter1"/><feColorMatrix values="0 0 0 0 0 0 0 0 0 0 0 0 0 0 0 0 0 0 0.14 0" in="shadowBlurOuter1" result="shadowMatrixOuter1"/><feMerge><feMergeNode in="shadowMatrixOuter1"/><feMergeNode in="SourceGraphic"/></feMerge></filter><filter x="-50%" y="-50%" width="200%" height="200%" filterUnits="objectBoundingBox" id="g"><feOffset dy="2" in="SourceAlpha" result="shadowOffsetOuter1"/><feGaussianBlur stdDeviation="2" in="shadowOffsetOuter1" result="shadowBlurOuter1"/><feColorMatrix values="0 0 0 0 0 0 0 0 0 0 0 0 0 0 0 0 0 0 0.14 0" in="shadowBlurOuter1" result="shadowMatrixOuter1"/><feMerge><feMergeNode in="shadowMatrixOuter1"/><feMergeNode in="SourceGraphic"/></feMerge></filter><filter x="-50%" y="-50%" width="200%" height="200%" filterUnits="objectBoundingBox" id="h"><feOffset dy="2" in="SourceAlpha" result="shadowOffsetOuter1"/><feGaussianBlur stdDeviation="2" in="shadowOffsetOuter1" result="shadowBlurOuter1"/><feColorMatrix values="0 0 0 0 0 0 0 0 0 0 0 0 0 0 0 0 0 0 0.14 0" in="shadowBlurOuter1" result="shadowMatrixOuter1"/><feMerge><feMergeNode in="shadowMatrixOuter1"/><feMergeNode in="SourceGraphic"/></feMerge></filter><filter x="-50%" y="-50%" width="200%" height="200%" filterUnits="objectBoundingBox" id="i"><feOffset dy="2" in="SourceAlpha" result="shadowOffsetOuter1"/><feGaussianBlur stdDeviation="2" in="shadowOffsetOuter1" result="shadowBlurOuter1"/><feColorMatrix values="0 0 0 0 0 0 0 0 0 0 0 0 0 0 0 0 0 0 0.14 0" in="shadowBlurOuter1" result="shadowMatrixOuter1"/><feMerge><feMergeNode in="shadowMatrixOuter1"/><feMergeNode in="SourceGraphic"/></feMerge></filter></defs><g fill="#FFF" fill-rule="evenodd"><path d="M24.865 54.778H13.987v41.44H0V1.035h13.987v39.367h10.878V1.036h13.987v95.18H24.865V54.78zm20.462 41.44L59.703 1.035h17.095l14.375 95.18H77.575l-2.59-19.423h-13.47l-2.59 19.424H45.328zm23.7-64.232l-.388-2.46h-.778l-.39 2.46L63.46 62.03h9.584l-4.015-30.044zm65.013 31.598v13.08c-.13 3.884-.907 7.38-2.33 10.36-1.167 2.59-2.98 5.05-5.57 6.992-2.59 2.072-6.087 3.237-10.75 3.237-4.66 0-8.288-1.165-10.878-3.237-2.59-1.943-4.274-4.403-5.44-6.993-1.424-2.98-2.2-6.475-2.33-10.36V20.59c.13-3.755.906-7.252 2.33-10.23 1.166-2.59 2.85-5.18 5.44-7.123C107.102 1.295 110.73 0 115.392 0c4.66 0 8.158 1.295 10.748 3.237 2.59 1.943 4.403 4.533 5.57 7.123 1.423 2.978 2.2 6.475 2.33 10.23v13.08h-13.08V20.59c0-2.59-.648-4.403-2.072-5.957-.648-.647-1.814-1.036-3.238-1.036-2.46 0-3.626 1.813-4.274 3.497-.388 1.036-.518 2.2-.647 3.496v56.073c.128 2.72.905 4.532 2.2 5.957.648.647 1.554 1.036 2.72 1.036 2.978 0 4.144-1.554 4.792-3.497.388-.907.518-2.072.518-3.497v-13.08h13.08zm22.405-62.548v33.28h.518l.647-1.553 11.656-31.727h13.598l-12.82 31.34 14.504 63.84h-13.6l-9.712-41.438-.388-1.943h-.39l-.776 1.943-3.237 7.77v33.67h-13.987V1.035h13.987zm34.578 0h31.988V15.41h-18v24.993h12.95v15.28h-12.95v26.16h18v14.374h-31.987V1.037zm64.753 95.18l-7.252-40.143h-3.756v40.144h-13.986V1.037h13.986c16.707 0 23.83 9.452 23.83 27.453 0 9.453-2.46 18-7.77 21.626l8.935 46.1h-13.987zm-11.008-53.093c1.943 0 4.533-.26 6.605-2.072s3.756-5.308 3.756-12.042-1.685-10.36-3.757-12.173c-2.072-1.813-4.662-1.943-6.605-1.943v28.23z" filter="url(#a)" transform="translate(4 104.568)"/><path d="M454.673 26.55c0-3.107-.13-6.604-1.036-9.323-.907-2.59-2.33-4.403-4.533-4.403-3.626.13-4.792 3.885-4.792 9.453 0 3.238 1.425 6.605 3.497 10.23 2.07 3.627 4.79 7.382 7.51 11.396 3.238 4.792 6.476 9.713 8.936 14.504 2.46 4.792 4.145 9.713 4.145 14.893 0 6.345-1.035 12.302-4.014 16.705-2.98 4.403-7.77 7.252-15.41 7.252-8.937 0-13.988-3.367-16.837-8.547-2.85-5.18-3.498-12.043-3.498-19.166l13.728-1.295c0 4.014.13 8.028 1.165 11.006.907 3.108 2.46 5.18 5.44 5.18 4.144 0 5.698-4.403 5.698-10.49 0-3.107-1.554-6.733-3.626-10.488-1.166-1.813-2.33-3.756-3.626-5.698a449.466 449.466 0 0 1-8.806-13.08c-3.108-4.79-5.44-9.712-6.864-14.762a25.426 25.426 0 0 1-1.165-7.64c0-5.18 1.165-10.75 4.144-15.023 2.977-4.144 7.51-7.122 14.115-7.252 8.418-.13 13.34 3.367 16.06 8.418 2.72 5.18 3.496 11.526 3.496 16.836l-13.727 1.295zm33.892-25.51h13.987c6.087 0 12.173 1.553 16.836 5.956 4.662 4.403 7.77 11.655 7.77 22.533 0 10.877-3.108 18-7.77 22.402-4.663 4.403-10.75 6.216-16.836 6.216V96.22h-13.987V1.04zm13.987 42.863c4.274 0 6.993-.777 8.547-2.978 1.553-2.072 1.942-5.568 1.942-10.878 0-5.31-.39-9.065-1.943-11.396-1.555-2.33-4.274-3.366-8.548-3.366v28.62zM542.92 96.22l14.375-95.18h17.095l14.375 95.18h-13.598l-2.59-19.424h-13.47l-2.59 19.425H542.92zm23.7-64.23l-.39-2.46h-.776l-.39 2.46-4.014 30.043h9.584L566.62 31.99zm77.665 31.597v13.08c-.13 3.884-.907 7.38-2.33 10.36-1.167 2.59-2.98 5.05-5.57 6.992-2.59 2.07-6.087 3.237-10.75 3.237-4.662 0-8.288-1.166-10.878-3.238-2.59-1.943-4.274-4.404-5.44-6.994-1.424-2.978-2.2-6.475-2.33-10.36V20.595c.13-3.756.906-7.252 2.33-10.23 1.166-2.59 2.85-5.18 5.44-7.123 2.59-1.942 6.216-3.237 10.88-3.237 4.66 0 8.158 1.295 10.748 3.238s4.403 4.533 5.57 7.123c1.423 2.98 2.2 6.475 2.33 10.23v13.08h-13.08v-13.08c0-2.59-.648-4.402-2.073-5.956-.647-.648-1.813-1.036-3.237-1.036-2.46 0-3.627 1.814-4.274 3.497-.388 1.036-.517 2.202-.647 3.497v56.073c.13 2.72.907 4.532 2.202 5.956.648.648 1.554 1.036 2.72 1.036 2.978 0 4.144-1.555 4.79-3.497.39-.907.52-2.072.52-3.496v-13.08h13.08zm21.07-62.548h31.99v14.374H679.34v24.993h12.95v15.28h-12.95v26.16h18.002V96.22h-31.988V1.04z" filter="url(#b)" transform="translate(4 104.568)"/><path d="M347.64 53.488c8.74-8.24 16.196-15.28 16.89-15.965 1.728-1.727 1.145-3.347.627-4.578-4.34-10.193.56-19.37 5.226-24.294 4.816-5.117 11.036-6.758 13.95-6.91 2.895-.15 6.804 1.102 9.547 3.844L381.678 17.83l2.138 11.898 11.9 2.16 12.202-12.245c3.088 3.088 4.06 6.78 3.887 9.566-.173 2.807-1.21 8.292-6.89 13.97-5.68 5.68-16.628 9.136-24.317 5.162-1.1-.56-2.742-1.166-4.578.627-.8.78-7.616 8-15.64 16.522 9.118 8.592 16.802 15.826 16.802 15.826 4.19 3.606 3.888 10.28.022 14.166-3.93 3.865-10.56 4.103-14.167-.065 0 0-6.994-7.45-15.397-16.388a37134.68 37134.68 0 0 0-15.396 16.387c-3.606 4.167-10.237 3.93-14.167.064-3.866-3.887-4.168-10.56.022-14.166 0 0 7.682-7.234 16.802-15.826-8.025-8.523-14.842-15.74-15.64-16.523-1.837-1.794-3.478-1.19-4.58-.628-7.688 3.974-18.637.52-24.317-5.16s-6.716-11.165-6.89-13.973c-.172-2.786.8-6.48 3.888-9.567l12.202 12.244 11.9-2.16 2.138-11.898L301.4 5.583c2.744-2.742 6.653-3.995 9.546-3.843 2.916.152 9.136 1.793 13.952 6.91 4.665 4.925 9.567 14.102 5.226 24.295-.518 1.23-1.1 2.85.626 4.578.695.686 8.15 7.724 16.89 15.965zm19.76 37.05c1.36 1.34 3.563 1.34 4.902 0 1.34-1.36 1.34-3.562 0-4.9-1.36-1.34-3.564-1.34-4.903 0-1.34 1.36-1.34 3.562 0 4.9zm-39.518 0c-1.36 1.34-3.564 1.34-4.903 0-1.34-1.36-1.34-3.562 0-4.9 1.36-1.34 3.563-1.34 4.902 0 1.34 1.36 1.34 3.562 0 4.9z" filter="url(#c)" transform="translate(4 104.568)"/><path d="M.744 17.044h60.288v-1.488H0v1.488h.744z" filter="url(#d)" transform="translate(149.448 235.893)"/><path d="M352.473 17.044h60.287v-1.488h-61.032v1.488h.745z" filter="url(#e)" transform="translate(149.448 235.893)"/><path d="M82.1 3.477h4.125v24.26h5.464v3.822H82.1V3.476zm11.27 0h9.437v4.24h-5.31v7.375h3.82V19.6h-3.82v7.718h5.31v4.24H93.37V3.48zm10.66 28.082l4.24-28.083h5.044l4.24 28.082h-4.01l-.765-5.732h-3.974l-.765 5.73h-4.01zm6.992-18.952l-.115-.726h-.23l-.114.726-1.184 8.864h2.826l-1.184-8.864zm15.817 18.95l-2.14-11.843h-1.108V31.56h-4.127V3.476h4.127c4.93 0 7.03 2.79 7.03 8.1 0 2.79-.726 5.31-2.293 6.38l2.636 13.602h-4.127zm-3.248-15.664c.573 0 1.337-.076 1.948-.61.612-.536 1.108-1.568 1.108-3.554 0-1.987-.496-3.057-1.108-3.592-.61-.535-1.375-.573-1.948-.573v8.33zm14.022 1.032l-.344-1.3h-.23V31.56h-3.782V3.476h3.668l4.012 14.633.344 1.3h.23V3.476h3.78V31.56h-3.666l-4.012-14.634zM167.34 34.92h-3.134L152.858 0h3.02l11.46 34.92zm14.403-3.36l-2.636-17.653-.153-1.184h-.23V31.56h-3.82V3.476h5.043l2.446 12.837.19 1.49h.077l.19-1.49 2.446-12.837h5.044V31.56h-3.82V12.722h-.23l-.153 1.184L183.5 31.56h-1.757zm10.507 0l4.24-28.083h5.044l4.24 28.082h-4.01L201 25.827h-3.974l-.764 5.73h-4.012zm6.992-18.952l-.115-.726h-.23l-.113.726-1.185 8.864h2.826l-1.184-8.864zm12.57-9.13v9.818h.153l.19-.458 3.44-9.36h4.01l-3.78 9.245 4.278 18.836h-4.012l-2.864-12.227-.115-.573h-.113l-.23.573-.955 2.292v9.934h-4.126V3.476h4.126zm10.202 0h9.437v4.24h-5.31v7.374h3.82V19.6h-3.82v7.718h5.31v4.24h-9.436V3.48zm30.718 31.443H249.6L238.25 0h3.018l11.462 34.92zm14.404-23.916c0-.917-.038-1.95-.305-2.75-.267-.765-.687-1.3-1.337-1.3-1.07.038-1.413 1.146-1.413 2.79 0 .954.42 1.947 1.03 3.017.613 1.07 1.415 2.18 2.217 3.363.955 1.414 1.91 2.866 2.637 4.28.725 1.413 1.222 2.865 1.222 4.393 0 1.873-.305 3.63-1.184 4.93-.88 1.298-2.293 2.14-4.547 2.14-2.636 0-4.126-.995-4.967-2.523-.84-1.528-1.03-3.553-1.03-5.655l4.05-.382c0 1.185.037 2.37.342 3.248.268.917.726 1.528 1.605 1.528 1.223 0 1.68-1.3 1.68-3.094 0-.917-.457-1.987-1.07-3.095-.342-.535-.686-1.108-1.068-1.68a132.61 132.61 0 0 1-2.598-3.86c-.918-1.414-1.606-2.866-2.026-4.356a7.502 7.502 0 0 1-.344-2.254c0-1.528.344-3.17 1.222-4.432.88-1.222 2.216-2.1 4.165-2.14 2.483-.037 3.935.995 4.738 2.485.802 1.528 1.03 3.4 1.03 4.967l-4.05.382zm13.602 8.33h-3.21v12.225h-4.126V3.476h4.127v11.615h3.208V3.477h4.126V31.56h-4.126V19.332zm6.037 12.225l4.24-28.083h5.044l4.24 28.082h-4.012l-.764-5.732h-3.973l-.764 5.73h-4.01zm6.992-18.952l-.115-.726h-.23l-.114.726-1.184 8.864h2.827l-1.183-8.864zm15.817 18.95l-2.14-11.843h-1.107V31.56h-4.127V3.476h4.127c4.93 0 7.03 2.79 7.03 8.1 0 2.79-.726 5.31-2.293 6.38l2.637 13.602h-4.126zm-3.247-15.664c.573 0 1.337-.076 1.948-.61.612-.536 1.108-1.568 1.108-3.554 0-1.987-.496-3.057-1.108-3.592-.61-.535-1.375-.573-1.948-.573v8.33zm9.666-12.417h9.437v4.24h-5.31v7.375h3.82V19.6h-3.82v7.718h5.31v4.24h-9.437V3.48z" filter="url(#f)" transform="translate(149.448 235.893)"/><g><path d="M168.196 0v68.707L26.79 84.064V15.356L168.196 0zM61.34 24.85v36.99l8.302-.934v5.826l-14.57 1.64V25.555l6.27-.705zm17.126-1.926V65.74l-6.27.704V23.63l6.27-.706zm18.983-2.137v6.466l-8.07.908v11.244l5.805-.653v6.874l-5.805.654v11.766l8.07-.908v6.466l-14.34 1.614V22.4l14.34-1.613zm13.524 7.274c0-1.164-.232-1.953-.812-2.587-.29-.26-.755-.38-1.277-.322-1.103.125-1.626 1-1.858 1.783-.174.485-.232 1.016-.232 1.6v25.746c0 1.222.29 2.005.87 2.58.29.26.697.388 1.22.33 1.103-.125 1.625-.883 1.857-1.783.174-.427.232-.958.232-1.598v-7.75l-2.496.282v-5.3l8.766-.987v21.32l-3.715.418-.756-1.954c-1.16 1.586-2.844 2.824-4.876 3.053-2.032.228-3.425-.14-4.47-.954-1.045-.757-1.742-1.785-2.206-2.898-.523-1.28-.755-2.828-.697-4.582V29.237c.058-1.696.407-3.308 1.045-4.72.523-1.223 1.277-2.473 2.438-3.478 1.16-1.005 2.787-1.77 4.877-2.006 2.09-.235 3.657.17 4.818.914 1.16.744 1.974 1.817 2.496 2.923.638 1.27.986 2.803 1.044 4.486v6.582l-6.27.706V28.06zm25.195-11.63v6.466l-8.07.908v11.243l5.805-.654v6.874l-5.805.653v11.767l8.07-.908v6.465l-14.34 1.614V18.043l14.34-1.614z" filter="url(#g)" transform="translate(258.938)"/><path d="M195.167 73.733l-22.327 3.843v-65.09l22.327-3.844v65.09z" filter="url(#h)" transform="translate(258.938)"/><path d="M22.327 72.005L0 75.847v-65.09l22.327-3.843v65.09z" filter="url(#i)" transform="translate(258.938)"/></g></g></svg>