<?xml version="1.0" encoding="UTF-8" standalone="no"?>
<svg width="653px" height="226px" viewBox="0 0 653 226" version="1.1" xmlns="http://www.w3.org/2000/svg" xmlns:xlink="http://www.w3.org/1999/xlink" xmlns:sketch="http://www.bohemiancoding.com/sketch/ns">
    <!-- Generator: Sketch 3.5.2 (25235) - http://www.bohemiancoding.com/sketch -->
    <title>logo</title>
    <desc>Created with Sketch.</desc>
    <defs></defs>
    <g id="Page-1" stroke="none" stroke-width="1" fill="none" fill-rule="evenodd" sketch:type="MSPage">
        <g id="Artboard-2" sketch:type="MSArtboardGroup" transform="translate(-26.000000, -667.000000)" fill="#000000">
            <g id="two-lines" sketch:type="MSLayerGroup" transform="translate(25.000000, 667.000000)">
                <g id="wrench" transform="translate(0.000000, 2.000000)" sketch:type="MSShapeGroup">
                    <g id="Layer_1">
                        <path d="M105.5,84.0369122 C93.681497,72.8843381 84.5611183,64.2627723 83.5505929,63.264353 C80.4983592,60.2109892 81.5284881,57.3484607 82.4441582,55.1729389 C90.1128953,37.1580925 81.4521823,20.9370973 73.2111513,12.2350105 C64.70305,3.18942023 53.7150087,0.288724618 48.5643644,0.0215552857 C43.451873,-0.245614047 36.5461943,1.96807471 31.7007733,6.81528974 L53.2571737,28.4560057 L49.4800345,49.4860489 L28.457775,53.3027536 L6.90137466,31.6620377 C1.44550696,37.1199255 -0.271374486,43.6464906 0.0338488823,48.5700397 C0.33907225,53.5317559 2.17041246,63.226186 12.2046307,73.2641195 C22.2388489,83.302053 41.5823798,89.4087806 55.1648197,82.3860438 C57.1106187,81.3937006 60.0102407,80.3250233 63.253239,83.4928882 C64.4100156,84.6257309 72.7057226,93.3977637 83.4657193,104.817466 C63.9882195,123.178937 45.4206269,140.667125 45.4206269,140.667125 C38.0189603,147.041022 38.5531012,158.83464 45.382474,165.704709 C52.3263056,172.53661 64.0392524,172.956448 70.4107902,165.590207 C70.4107902,165.590207 87.4207483,147.464195 105.5,128.233407 C123.579252,147.464195 140.58921,165.590207 140.58921,165.590207 C146.960748,172.956448 158.673694,172.53661 165.617526,165.704709 C172.446899,158.83464 172.98104,147.041022 165.579373,140.667125 C165.579373,140.667125 147.011781,123.178937 127.534281,104.817466 C138.294277,93.3977637 146.589984,84.6257309 147.746761,83.4928882 C150.989759,80.3250233 153.889381,81.3937006 155.83518,82.3860438 C169.41762,89.4087806 188.761151,83.302053 198.795369,73.2641195 C208.829588,63.226186 210.660928,53.5317559 210.966151,48.5700397 C211.271374,43.6464906 209.554493,37.1199255 204.098625,31.6620377 L182.542225,53.3027536 L161.519966,49.4860489 L157.742826,28.4560057 L179.299227,6.81528974 C174.453806,1.96807471 167.548127,-0.245614047 162.435636,0.0215552857 C157.284991,0.288724618 146.29695,3.18942023 137.788849,12.2350105 C129.547818,20.9370973 120.887105,37.1580925 128.555842,55.1729389 C129.471512,57.3484607 130.501641,60.2109892 127.449407,63.264353 C126.438882,64.2627723 117.318503,72.8843381 105.5,84.0369122 Z M62.7039002,156.964455 C60.3002661,159.330812 56.4086682,159.330812 54.0431871,156.964455 C51.677706,154.559931 51.677706,150.666892 54.0431871,148.300535 C56.4468211,145.934178 60.3384191,145.934178 62.7039002,148.300535 C65.0693813,150.705059 65.0693813,154.598098 62.7039002,156.964455 Z M148.2961,156.964455 C150.699734,159.330812 154.591332,159.330812 156.956813,156.964455 C159.322294,154.559931 159.322294,150.666892 156.956813,148.300535 C154.553179,145.934178 150.661581,145.934178 148.2961,148.300535 C145.930619,150.705059 145.930619,154.598098 148.2961,156.964455 Z" id="Shape"></path>
                    </g>
                </g>
                <g id="text" transform="translate(241.000000, 0.000000)" sketch:type="MSShapeGroup">
                    <path d="M0.32,1.62 L11.984,1.62 L11.984,70.2 L27.428,70.2 L27.428,81 L0.32,81 L0.32,1.62 Z M32.18,1.62 L43.844,1.62 L43.844,81 L32.18,81 L32.18,1.62 Z M52.484,1.62 L79.16,1.62 L79.16,13.608 L64.148,13.608 L64.148,34.452 L74.948,34.452 L74.948,47.196 L64.148,47.196 L64.148,69.012 L79.16,69.012 L79.16,81 L52.484,81 L52.484,1.62 Z M104.324,30.132 L104.324,17.928 C104.324,15.768 103.892,14.256 102.812,12.96 C102.272,12.42 101.408,12.096 100.436,12.096 C98.384,12.096 97.412,13.608 96.98,15.012 C96.656,15.876 96.548,16.848 96.548,17.928 L96.548,65.664 C96.548,67.932 97.088,69.444 98.168,70.632 C98.708,71.172 99.464,71.496 100.436,71.496 C102.488,71.496 103.46,70.2 103.892,68.58 C104.216,67.824 104.324,66.852 104.324,65.664 L104.324,51.3 L99.68,51.3 L99.68,41.472 L115.988,41.472 L115.988,81 L109.076,81 L107.672,77.22 C105.512,79.92 102.38,81.864 98.6,81.864 C94.82,81.864 92.228,80.892 90.284,79.164 C88.34,77.544 87.044,75.492 86.18,73.332 C85.208,70.848 84.776,67.932 84.884,64.692 L84.884,17.928 C84.992,14.796 85.64,11.88 86.828,9.396 C87.8,7.236 89.204,5.076 91.364,3.456 C93.524,1.836 96.548,0.756 100.436,0.756 C104.324,0.756 107.24,1.836 109.4,3.456 C111.56,5.076 113.072,7.236 114.044,9.396 C115.232,11.88 115.88,14.796 115.988,17.928 L115.988,30.132 L104.324,30.132 Z M124.52,1.62 L151.196,1.62 L151.196,13.608 L136.184,13.608 L136.184,34.452 L146.984,34.452 L146.984,47.196 L136.184,47.196 L136.184,69.012 L151.196,69.012 L151.196,81 L124.52,81 L124.52,1.62 Z" id="LIEGE"></path>
                    <path d="M21.056,138.44 L11.984,138.44 L11.984,173 L0.32,173 L0.32,93.62 L11.984,93.62 L11.984,126.452 L21.056,126.452 L21.056,93.62 L32.72,93.62 L32.72,173 L21.056,173 L21.056,138.44 Z M38.12,173 L50.108,93.62 L64.364,93.62 L76.352,173 L65.012,173 L62.852,156.8 L51.62,156.8 L49.46,173 L38.12,173 Z M57.884,119.432 L57.56,117.38 L56.912,117.38 L56.588,119.432 L53.24,144.488 L61.232,144.488 L57.884,119.432 Z M112.1,145.784 L112.1,156.692 C111.992,159.932 111.344,162.848 110.156,165.332 C109.184,167.492 107.672,169.544 105.512,171.164 C103.352,172.892 100.436,173.864 96.548,173.864 C92.66,173.864 89.636,172.892 87.476,171.164 C85.316,169.544 83.912,167.492 82.94,165.332 C81.752,162.848 81.104,159.932 80.996,156.692 L80.996,109.928 C81.104,106.796 81.752,103.88 82.94,101.396 C83.912,99.236 85.316,97.076 87.476,95.456 C89.636,93.836 92.66,92.756 96.548,92.756 C100.436,92.756 103.352,93.836 105.512,95.456 C107.672,97.076 109.184,99.236 110.156,101.396 C111.344,103.88 111.992,106.796 112.1,109.928 L112.1,120.836 L101.192,120.836 L101.192,109.928 C101.192,107.768 100.652,106.256 99.464,104.96 C98.924,104.42 97.952,104.096 96.764,104.096 C94.712,104.096 93.74,105.608 93.2,107.012 C92.876,107.876 92.768,108.848 92.66,109.928 L92.66,156.692 C92.768,158.96 93.416,160.472 94.496,161.66 C95.036,162.2 95.792,162.524 96.764,162.524 C99.248,162.524 100.22,161.228 100.76,159.608 C101.084,158.852 101.192,157.88 101.192,156.692 L101.192,145.784 L112.1,145.784 Z M130.784,93.62 L130.784,121.376 L131.216,121.376 L131.756,120.08 L141.476,93.62 L152.816,93.62 L142.124,119.756 L154.22,173 L142.88,173 L134.78,138.44 L134.456,136.82 L134.132,136.82 L133.484,138.44 L130.784,144.92 L130.784,173 L119.12,173 L119.12,93.62 L130.784,93.62 Z M159.62,93.62 L186.296,93.62 L186.296,105.608 L171.284,105.608 L171.284,126.452 L182.084,126.452 L182.084,139.196 L171.284,139.196 L171.284,161.012 L186.296,161.012 L186.296,173 L159.62,173 L159.62,93.62 Z M213.62,173 L207.572,139.52 L204.44,139.52 L204.44,173 L192.776,173 L192.776,93.62 L204.44,93.62 C218.372,93.62 224.312,101.504 224.312,116.516 C224.312,124.4 222.26,131.528 217.832,134.552 L225.284,173 L213.62,173 Z M204.44,128.72 C206.06,128.72 208.22,128.504 209.948,126.992 C211.676,125.48 213.08,122.564 213.08,116.948 C213.08,111.332 211.676,108.308 209.948,106.796 C208.22,105.284 206.06,105.176 204.44,105.176 L204.44,128.72 Z M251.096,114.896 C251.096,112.304 250.988,109.388 250.232,107.12 C249.476,104.96 248.288,103.448 246.452,103.448 C243.428,103.556 242.456,106.688 242.456,111.332 C242.456,114.032 243.644,116.84 245.372,119.864 C247.1,122.888 249.368,126.02 251.636,129.368 C254.336,133.364 257.036,137.468 259.088,141.464 C261.14,145.46 262.544,149.564 262.544,153.884 C262.544,159.176 261.68,164.144 259.196,167.816 C256.712,171.488 252.716,173.864 246.344,173.864 C238.892,173.864 234.68,171.056 232.304,166.736 C229.928,162.416 229.388,156.692 229.388,150.752 L240.836,149.672 C240.836,153.02 240.944,156.368 241.808,158.852 C242.564,161.444 243.86,163.172 246.344,163.172 C249.8,163.172 251.096,159.5 251.096,154.424 C251.096,151.832 249.8,148.808 248.072,145.676 C247.1,144.164 246.128,142.544 245.048,140.924 C242.78,137.684 240.296,134.012 237.704,130.016 C235.112,126.02 233.168,121.916 231.98,117.704 C231.332,115.652 231.008,113.492 231.008,111.332 C231.008,107.012 231.98,102.368 234.464,98.804 C236.948,95.348 240.728,92.864 246.236,92.756 C253.256,92.648 257.36,95.564 259.628,99.776 C261.896,104.096 262.544,109.388 262.544,113.816 L251.096,114.896 Z M268.808,93.62 L280.472,93.62 C285.548,93.62 290.624,94.916 294.512,98.588 C298.4,102.26 300.992,108.308 300.992,117.38 C300.992,126.452 298.4,132.392 294.512,136.064 C290.624,139.736 285.548,141.248 280.472,141.248 L280.472,173 L268.808,173 L268.808,93.62 Z M280.472,129.368 C284.036,129.368 286.304,128.72 287.6,126.884 C288.896,125.156 289.22,122.24 289.22,117.812 C289.22,113.384 288.896,110.252 287.6,108.308 C286.304,106.364 284.036,105.5 280.472,105.5 L280.472,129.368 Z M303.584,173 L315.572,93.62 L329.828,93.62 L341.816,173 L330.476,173 L328.316,156.8 L317.084,156.8 L314.924,173 L303.584,173 Z M323.348,119.432 L323.024,117.38 L322.376,117.38 L322.052,119.432 L318.704,144.488 L326.696,144.488 L323.348,119.432 Z M377.564,145.784 L377.564,156.692 C377.456,159.932 376.808,162.848 375.62,165.332 C374.648,167.492 373.136,169.544 370.976,171.164 C368.816,172.892 365.9,173.864 362.012,173.864 C358.124,173.864 355.1,172.892 352.94,171.164 C350.78,169.544 349.376,167.492 348.404,165.332 C347.216,162.848 346.568,159.932 346.46,156.692 L346.46,109.928 C346.568,106.796 347.216,103.88 348.404,101.396 C349.376,99.236 350.78,97.076 352.94,95.456 C355.1,93.836 358.124,92.756 362.012,92.756 C365.9,92.756 368.816,93.836 370.976,95.456 C373.136,97.076 374.648,99.236 375.62,101.396 C376.808,103.88 377.456,106.796 377.564,109.928 L377.564,120.836 L366.656,120.836 L366.656,109.928 C366.656,107.768 366.116,106.256 364.928,104.96 C364.388,104.42 363.416,104.096 362.228,104.096 C360.176,104.096 359.204,105.608 358.664,107.012 C358.34,107.876 358.232,108.848 358.124,109.928 L358.124,156.692 C358.232,158.96 358.88,160.472 359.96,161.66 C360.5,162.2 361.256,162.524 362.228,162.524 C364.712,162.524 365.684,161.228 366.224,159.608 C366.548,158.852 366.656,157.88 366.656,156.692 L366.656,145.784 L377.564,145.784 Z M384.584,93.62 L411.26,93.62 L411.26,105.608 L396.248,105.608 L396.248,126.452 L407.048,126.452 L407.048,139.196 L396.248,139.196 L396.248,161.012 L411.26,161.012 L411.26,173 L384.584,173 L384.584,93.62 Z" id="HACKERSPACE"></path>
                </g>
                <g id="baseline" transform="translate(1.000000, 186.000000)" sketch:type="MSShapeGroup">
                    <path d="M1.46341463,21 L118.536585,21 L120,21 L120,19 L118.536585,19 L1.46341463,19 L0,19 L0,21 L1.46341463,21 L1.46341463,21 Z" id="Shape"></path>
                    <path d="M508.756098,21 L649.243902,21 L651,21 L651,19 L649.243902,19 L508.756098,19 L507,19 L507,21 L508.756098,21 L508.756098,21 Z" id="Shape"></path>
                    <path d="M150,3.98249453 L155.604636,3.98249453 L155.604636,31.7724289 L163.025589,31.7724289 L163.025589,36.1487965 L150,36.1487965 L150,3.98249453 Z M165.308959,3.98249453 L178.126968,3.98249453 L178.126968,8.84026258 L170.913594,8.84026258 L170.913594,17.2866521 L176.103072,17.2866521 L176.103072,22.4507659 L170.913594,22.4507659 L170.913594,31.2910284 L178.126968,31.2910284 L178.126968,36.1487965 L165.308959,36.1487965 L165.308959,3.98249453 Z M179.787601,36.1487965 L185.547921,3.98249453 L192.398031,3.98249453 L198.158352,36.1487965 L192.7094,36.1487965 L191.671505,29.5842451 L186.274448,29.5842451 L185.236552,36.1487965 L179.787601,36.1487965 Z M189.284345,14.4420131 L189.128661,13.6105033 L188.817292,13.6105033 L188.661608,14.4420131 L187.05287,24.595186 L190.893083,24.595186 L189.284345,14.4420131 Z M210.768782,36.1487965 L207.862675,22.5820569 L206.357726,22.5820569 L206.357726,36.1487965 L200.75309,36.1487965 L200.75309,3.98249453 L206.357726,3.98249453 C213.052152,3.98249453 215.906365,7.17724289 215.906365,13.2603939 C215.906365,16.4551422 214.920364,19.3435449 212.792678,20.5689278 L216.373418,36.1487965 L210.768782,36.1487965 Z M206.357726,18.2056893 C207.136148,18.2056893 208.174043,18.1181619 209.00436,17.5054705 C209.834676,16.892779 210.509308,15.7111597 210.509308,13.4354486 C210.509308,11.1597374 209.834676,9.93435449 209.00436,9.32166302 C208.174043,8.70897155 207.136148,8.66520788 206.357726,8.66520788 L206.357726,18.2056893 Z M225.403109,19.3873085 L224.936056,17.8993435 L224.624687,17.8993435 L224.624687,36.1487965 L219.487104,36.1487965 L219.487104,3.98249453 L224.469003,3.98249453 L229.917954,20.7439825 L230.385007,22.2319475 L230.696376,22.2319475 L230.696376,3.98249453 L235.833958,3.98249453 L235.833958,36.1487965 L230.85206,36.1487965 L225.403109,19.3873085 Z M265.777244,40 L261.521872,40 L246.109124,0 L250.208811,0 L265.777244,40 Z M285.341574,36.1487965 L281.760835,15.9299781 L281.553256,14.5733042 L281.241887,14.5733042 L281.241887,36.1487965 L276.052409,36.1487965 L276.052409,3.98249453 L282.90252,3.98249453 L286.223785,18.6870897 L286.483259,20.3938731 L286.587049,20.3938731 L286.846523,18.6870897 L290.167788,3.98249453 L297.017899,3.98249453 L297.017899,36.1487965 L291.828421,36.1487965 L291.828421,14.5733042 L291.517052,14.5733042 L291.309473,15.9299781 L287.728734,36.1487965 L285.341574,36.1487965 Z M299.612637,36.1487965 L305.372957,3.98249453 L312.223068,3.98249453 L317.983388,36.1487965 L312.534436,36.1487965 L311.496541,29.5842451 L306.099484,29.5842451 L305.061589,36.1487965 L299.612637,36.1487965 Z M309.109381,14.4420131 L308.953697,13.6105033 L308.642328,13.6105033 L308.486644,14.4420131 L306.877906,24.595186 L310.718119,24.595186 L309.109381,14.4420131 Z M326.182762,3.98249453 L326.182762,15.2297593 L326.390341,15.2297593 L326.649815,14.7045952 L331.320345,3.98249453 L336.769296,3.98249453 L331.631714,14.5733042 L337.443929,36.1487965 L331.994977,36.1487965 L328.102869,22.1444201 L327.947185,21.487965 L327.7915,21.487965 L327.480132,22.1444201 L326.182762,24.7702407 L326.182762,36.1487965 L320.578127,36.1487965 L320.578127,3.98249453 L326.182762,3.98249453 Z M340.038667,3.98249453 L352.856677,3.98249453 L352.856677,8.84026258 L345.643303,8.84026258 L345.643303,17.2866521 L350.832781,17.2866521 L350.832781,22.4507659 L345.643303,22.4507659 L345.643303,31.2910284 L352.856677,31.2910284 L352.856677,36.1487965 L340.038667,36.1487965 L340.038667,3.98249453 Z M381.762067,40 L377.506695,40 L362.093947,0 L366.193634,0 L381.762067,40 Z M401.326397,12.6039387 C401.326397,11.5536105 401.274502,10.3719912 400.911239,9.45295405 C400.547975,8.57768053 399.977133,7.96498906 399.094922,7.96498906 C397.641868,8.00875274 397.174815,9.27789934 397.174815,11.1597374 C397.174815,12.2538293 397.745658,13.3916849 398.575974,14.6170678 C399.40629,15.8424508 400.496081,17.1115974 401.585871,18.4682713 C402.88324,20.0875274 404.18061,21.750547 405.16661,23.3698031 C406.152611,24.9890591 406.827243,26.6520788 406.827243,28.4026258 C406.827243,30.547046 406.412085,32.5601751 405.218505,34.04814 C404.024925,35.536105 402.104819,36.4989059 399.043027,36.4989059 C395.462287,36.4989059 393.438391,35.3610503 392.296706,33.6105033 C391.155021,31.8599562 390.895547,29.5404814 390.895547,27.1334792 L396.396393,26.6958425 C396.396393,28.0525164 396.448288,29.4091904 396.863446,30.4157549 C397.22671,31.4660832 397.849447,32.166302 399.043027,32.166302 C400.70366,32.166302 401.326397,30.678337 401.326397,28.6214442 C401.326397,27.571116 400.70366,26.345733 399.873343,25.0765864 C399.40629,24.463895 398.939237,23.8074398 398.42029,23.1509847 C397.330499,21.8380744 396.136919,20.3501094 394.891445,18.7308534 C393.64597,17.1115974 392.711864,15.4485777 392.141022,13.7417943 C391.829653,12.9102845 391.673969,12.0350109 391.673969,11.1597374 C391.673969,9.40919037 392.141022,7.5273523 393.334602,6.08315098 C394.528181,4.68271335 396.344499,3.6761488 398.991132,3.63238512 C402.364293,3.58862144 404.336294,4.7702407 405.426084,6.47702407 C406.515875,8.22757112 406.827243,10.3719912 406.827243,12.166302 L401.326397,12.6039387 Z M419.800937,22.1444201 L415.441776,22.1444201 L415.441776,36.1487965 L409.83714,36.1487965 L409.83714,3.98249453 L415.441776,3.98249453 L415.441776,17.2866521 L419.800937,17.2866521 L419.800937,3.98249453 L425.405573,3.98249453 L425.405573,36.1487965 L419.800937,36.1487965 L419.800937,22.1444201 Z M428.000312,36.1487965 L433.760632,3.98249453 L440.610742,3.98249453 L446.371062,36.1487965 L440.922111,36.1487965 L439.884215,29.5842451 L434.487158,29.5842451 L433.449263,36.1487965 L428.000312,36.1487965 Z M437.497055,14.4420131 L437.341371,13.6105033 L437.030002,13.6105033 L436.874318,14.4420131 L435.26558,24.595186 L439.105793,24.595186 L437.497055,14.4420131 Z M458.981492,36.1487965 L456.075385,22.5820569 L454.570437,22.5820569 L454.570437,36.1487965 L448.965801,36.1487965 L448.965801,3.98249453 L454.570437,3.98249453 C461.264863,3.98249453 464.119075,7.17724289 464.119075,13.2603939 C464.119075,16.4551422 463.133074,19.3435449 461.005389,20.5689278 L464.586128,36.1487965 L458.981492,36.1487965 Z M454.570437,18.2056893 C455.348858,18.2056893 456.386754,18.1181619 457.21707,17.5054705 C458.047386,16.892779 458.722019,15.7111597 458.722019,13.4354486 C458.722019,11.1597374 458.047386,9.93435449 457.21707,9.32166302 C456.386754,8.70897155 455.348858,8.66520788 454.570437,8.66520788 L454.570437,18.2056893 Z M467.699815,3.98249453 L480.517824,3.98249453 L480.517824,8.84026258 L473.30445,8.84026258 L473.30445,17.2866521 L478.493928,17.2866521 L478.493928,22.4507659 L473.30445,22.4507659 L473.30445,31.2910284 L480.517824,31.2910284 L480.517824,36.1487965 L467.699815,36.1487965 L467.699815,3.98249453 Z" id="LEARN-\-MAKE-\-SHARE"></path>
                </g>
            </g>
        </g>
    </g>
</svg>