<?xml version="1.0" encoding="UTF-8" standalone="no"?>
<svg width="857px" height="250px" viewBox="0 0 857 250" version="1.1" xmlns="http://www.w3.org/2000/svg" xmlns:xlink="http://www.w3.org/1999/xlink">
    <!-- Generator: Sketch 40.2 (33826) - http://www.bohemiancoding.com/sketch -->
    <title>horizontal/text</title>
    <desc>Created with Sketch.</desc>
    <defs></defs>
    <g id="brand" stroke="none" stroke-width="1" fill="none" fill-rule="evenodd">
        <g id="horizontal/text" fill="#000000">
            <path d="M312.32,39.864 L323.984,39.864 L323.984,108.444 L339.428,108.444 L339.428,119.244 L312.32,119.244 L312.32,39.864 Z M344.18,39.864 L355.844,39.864 L355.844,119.244 L344.18,119.244 L344.18,39.864 Z M364.484,39.864 L391.16,39.864 L391.16,51.852 L376.148,51.852 L376.148,72.696 L386.948,72.696 L386.948,85.44 L376.148,85.44 L376.148,107.256 L391.16,107.256 L391.16,119.244 L364.484,119.244 L364.484,39.864 Z M416.324,68.376 L416.324,56.172 C416.324,54.012 415.892,52.5 414.812,51.204 C414.272,50.664 413.408,50.34 412.436,50.34 C410.384,50.34 409.412,51.852 408.98,53.256 C408.656,54.12 408.548,55.092 408.548,56.172 L408.548,103.908 C408.548,106.176 409.088,107.688 410.168,108.876 C410.708,109.416 411.464,109.74 412.436,109.74 C414.488,109.74 415.46,108.444 415.892,106.824 C416.216,106.068 416.324,105.096 416.324,103.908 L416.324,89.544 L411.68,89.544 L411.68,79.716 L427.988,79.716 L427.988,119.244 L421.076,119.244 L419.672,115.464 C417.512,118.164 414.38,120.108 410.6,120.108 C406.82,120.108 404.228,119.136 402.284,117.408 C400.34,115.788 399.044,113.736 398.18,111.576 C397.208,109.092 396.776,106.176 396.884,102.936 L396.884,56.172 C396.992,53.04 397.64,50.124 398.828,47.64 C399.8,45.48 401.204,43.32 403.364,41.7 C405.524,40.08 408.548,39 412.436,39 C416.324,39 419.24,40.08 421.4,41.7 C423.56,43.32 425.072,45.48 426.044,47.64 C427.232,50.124 427.88,53.04 427.988,56.172 L427.988,68.376 L416.324,68.376 Z M436.52,39.864 L463.196,39.864 L463.196,51.852 L448.184,51.852 L448.184,72.696 L458.984,72.696 L458.984,85.44 L448.184,85.44 L448.184,107.256 L463.196,107.256 L463.196,119.244 L436.52,119.244 L436.52,39.864 Z" id="LIEGE"></path>
            <path d="M333.056,176.684 L323.984,176.684 L323.984,211.244 L312.32,211.244 L312.32,131.864 L323.984,131.864 L323.984,164.696 L333.056,164.696 L333.056,131.864 L344.72,131.864 L344.72,211.244 L333.056,211.244 L333.056,176.684 Z M350.12,211.244 L362.108,131.864 L376.364,131.864 L388.352,211.244 L377.012,211.244 L374.852,195.044 L363.62,195.044 L361.46,211.244 L350.12,211.244 Z M369.884,157.676 L369.56,155.624 L368.912,155.624 L368.588,157.676 L365.24,182.732 L373.232,182.732 L369.884,157.676 Z M424.1,184.028 L424.1,194.936 C423.992,198.176 423.344,201.092 422.156,203.576 C421.184,205.736 419.672,207.788 417.512,209.408 C415.352,211.136 412.436,212.108 408.548,212.108 C404.66,212.108 401.636,211.136 399.476,209.408 C397.316,207.788 395.912,205.736 394.94,203.576 C393.752,201.092 393.104,198.176 392.996,194.936 L392.996,148.172 C393.104,145.04 393.752,142.124 394.94,139.64 C395.912,137.48 397.316,135.32 399.476,133.7 C401.636,132.08 404.66,131 408.548,131 C412.436,131 415.352,132.08 417.512,133.7 C419.672,135.32 421.184,137.48 422.156,139.64 C423.344,142.124 423.992,145.04 424.1,148.172 L424.1,159.08 L413.192,159.08 L413.192,148.172 C413.192,146.012 412.652,144.5 411.464,143.204 C410.924,142.664 409.952,142.34 408.764,142.34 C406.712,142.34 405.74,143.852 405.2,145.256 C404.876,146.12 404.768,147.092 404.66,148.172 L404.66,194.936 C404.768,197.204 405.416,198.716 406.496,199.904 C407.036,200.444 407.792,200.768 408.764,200.768 C411.248,200.768 412.22,199.472 412.76,197.852 C413.084,197.096 413.192,196.124 413.192,194.936 L413.192,184.028 L424.1,184.028 Z M442.784,131.864 L442.784,159.62 L443.216,159.62 L443.756,158.324 L453.476,131.864 L464.816,131.864 L454.124,158 L466.22,211.244 L454.88,211.244 L446.78,176.684 L446.456,175.064 L446.132,175.064 L445.484,176.684 L442.784,183.164 L442.784,211.244 L431.12,211.244 L431.12,131.864 L442.784,131.864 Z M471.62,131.864 L498.296,131.864 L498.296,143.852 L483.284,143.852 L483.284,164.696 L494.084,164.696 L494.084,177.44 L483.284,177.44 L483.284,199.256 L498.296,199.256 L498.296,211.244 L471.62,211.244 L471.62,131.864 Z M525.62,211.244 L519.572,177.764 L516.44,177.764 L516.44,211.244 L504.776,211.244 L504.776,131.864 L516.44,131.864 C530.372,131.864 536.312,139.748 536.312,154.76 C536.312,162.644 534.26,169.772 529.832,172.796 L537.284,211.244 L525.62,211.244 Z M516.44,166.964 C518.06,166.964 520.22,166.748 521.948,165.236 C523.676,163.724 525.08,160.808 525.08,155.192 C525.08,149.576 523.676,146.552 521.948,145.04 C520.22,143.528 518.06,143.42 516.44,143.42 L516.44,166.964 Z M563.096,153.14 C563.096,150.548 562.988,147.632 562.232,145.364 C561.476,143.204 560.288,141.692 558.452,141.692 C555.428,141.8 554.456,144.932 554.456,149.576 C554.456,152.276 555.644,155.084 557.372,158.108 C559.1,161.132 561.368,164.264 563.636,167.612 C566.336,171.608 569.036,175.712 571.088,179.708 C573.14,183.704 574.544,187.808 574.544,192.128 C574.544,197.42 573.68,202.388 571.196,206.06 C568.712,209.732 564.716,212.108 558.344,212.108 C550.892,212.108 546.68,209.3 544.304,204.98 C541.928,200.66 541.388,194.936 541.388,188.996 L552.836,187.916 C552.836,191.264 552.944,194.612 553.808,197.096 C554.564,199.688 555.86,201.416 558.344,201.416 C561.8,201.416 563.096,197.744 563.096,192.668 C563.096,190.076 561.8,187.052 560.072,183.92 C559.1,182.408 558.128,180.788 557.048,179.168 C554.78,175.928 552.296,172.256 549.704,168.26 C547.112,164.264 545.168,160.16 543.98,155.948 C543.332,153.896 543.008,151.736 543.008,149.576 C543.008,145.256 543.98,140.612 546.464,137.048 C548.948,133.592 552.728,131.108 558.236,131 C565.256,130.892 569.36,133.808 571.628,138.02 C573.896,142.34 574.544,147.632 574.544,152.06 L563.096,153.14 Z M580.808,131.864 L592.472,131.864 C597.548,131.864 602.624,133.16 606.512,136.832 C610.4,140.504 612.992,146.552 612.992,155.624 C612.992,164.696 610.4,170.636 606.512,174.308 C602.624,177.98 597.548,179.492 592.472,179.492 L592.472,211.244 L580.808,211.244 L580.808,131.864 Z M592.472,167.612 C596.036,167.612 598.304,166.964 599.6,165.128 C600.896,163.4 601.22,160.484 601.22,156.056 C601.22,151.628 600.896,148.496 599.6,146.552 C598.304,144.608 596.036,143.744 592.472,143.744 L592.472,167.612 Z M615.584,211.244 L627.572,131.864 L641.828,131.864 L653.816,211.244 L642.476,211.244 L640.316,195.044 L629.084,195.044 L626.924,211.244 L615.584,211.244 Z M635.348,157.676 L635.024,155.624 L634.376,155.624 L634.052,157.676 L630.704,182.732 L638.696,182.732 L635.348,157.676 Z M689.564,184.028 L689.564,194.936 C689.456,198.176 688.808,201.092 687.62,203.576 C686.648,205.736 685.136,207.788 682.976,209.408 C680.816,211.136 677.9,212.108 674.012,212.108 C670.124,212.108 667.1,211.136 664.94,209.408 C662.78,207.788 661.376,205.736 660.404,203.576 C659.216,201.092 658.568,198.176 658.46,194.936 L658.46,148.172 C658.568,145.04 659.216,142.124 660.404,139.64 C661.376,137.48 662.78,135.32 664.94,133.7 C667.1,132.08 670.124,131 674.012,131 C677.9,131 680.816,132.08 682.976,133.7 C685.136,135.32 686.648,137.48 687.62,139.64 C688.808,142.124 689.456,145.04 689.564,148.172 L689.564,159.08 L678.656,159.08 L678.656,148.172 C678.656,146.012 678.116,144.5 676.928,143.204 C676.388,142.664 675.416,142.34 674.228,142.34 C672.176,142.34 671.204,143.852 670.664,145.256 C670.34,146.12 670.232,147.092 670.124,148.172 L670.124,194.936 C670.232,197.204 670.88,198.716 671.96,199.904 C672.5,200.444 673.256,200.768 674.228,200.768 C676.712,200.768 677.684,199.472 678.224,197.852 C678.548,197.096 678.656,196.124 678.656,194.936 L678.656,184.028 L689.564,184.028 Z M696.584,131.864 L723.26,131.864 L723.26,143.852 L708.248,143.852 L708.248,164.696 L719.048,164.696 L719.048,177.44 L708.248,177.44 L708.248,199.256 L723.26,199.256 L723.26,211.244 L696.584,211.244 L696.584,131.864 Z" id="HACKERSPACE"></path>
            <path d="M333.056,176.684 L323.984,176.684 L323.984,211.244 L312.32,211.244 L312.32,131.864 L323.984,131.864 L323.984,164.696 L333.056,164.696 L333.056,131.864 L344.72,131.864 L344.72,211.244 L333.056,211.244 L333.056,176.684 Z M350.12,211.244 L362.108,131.864 L376.364,131.864 L388.352,211.244 L377.012,211.244 L374.852,195.044 L363.62,195.044 L361.46,211.244 L350.12,211.244 Z M369.884,157.676 L369.56,155.624 L368.912,155.624 L368.588,157.676 L365.24,182.732 L373.232,182.732 L369.884,157.676 Z M424.1,184.028 L424.1,194.936 C423.992,198.176 423.344,201.092 422.156,203.576 C421.184,205.736 419.672,207.788 417.512,209.408 C415.352,211.136 412.436,212.108 408.548,212.108 C404.66,212.108 401.636,211.136 399.476,209.408 C397.316,207.788 395.912,205.736 394.94,203.576 C393.752,201.092 393.104,198.176 392.996,194.936 L392.996,148.172 C393.104,145.04 393.752,142.124 394.94,139.64 C395.912,137.48 397.316,135.32 399.476,133.7 C401.636,132.08 404.66,131 408.548,131 C412.436,131 415.352,132.08 417.512,133.7 C419.672,135.32 421.184,137.48 422.156,139.64 C423.344,142.124 423.992,145.04 424.1,148.172 L424.1,159.08 L413.192,159.08 L413.192,148.172 C413.192,146.012 412.652,144.5 411.464,143.204 C410.924,142.664 409.952,142.34 408.764,142.34 C406.712,142.34 405.74,143.852 405.2,145.256 C404.876,146.12 404.768,147.092 404.66,148.172 L404.66,194.936 C404.768,197.204 405.416,198.716 406.496,199.904 C407.036,200.444 407.792,200.768 408.764,200.768 C411.248,200.768 412.22,199.472 412.76,197.852 C413.084,197.096 413.192,196.124 413.192,194.936 L413.192,184.028 L424.1,184.028 Z M442.784,131.864 L442.784,159.62 L443.216,159.62 L443.756,158.324 L453.476,131.864 L464.816,131.864 L454.124,158 L466.22,211.244 L454.88,211.244 L446.78,176.684 L446.456,175.064 L446.132,175.064 L445.484,176.684 L442.784,183.164 L442.784,211.244 L431.12,211.244 L431.12,131.864 L442.784,131.864 Z M471.62,131.864 L498.296,131.864 L498.296,143.852 L483.284,143.852 L483.284,164.696 L494.084,164.696 L494.084,177.44 L483.284,177.44 L483.284,199.256 L498.296,199.256 L498.296,211.244 L471.62,211.244 L471.62,131.864 Z M525.62,211.244 L519.572,177.764 L516.44,177.764 L516.44,211.244 L504.776,211.244 L504.776,131.864 L516.44,131.864 C530.372,131.864 536.312,139.748 536.312,154.76 C536.312,162.644 534.26,169.772 529.832,172.796 L537.284,211.244 L525.62,211.244 Z M516.44,166.964 C518.06,166.964 520.22,166.748 521.948,165.236 C523.676,163.724 525.08,160.808 525.08,155.192 C525.08,149.576 523.676,146.552 521.948,145.04 C520.22,143.528 518.06,143.42 516.44,143.42 L516.44,166.964 Z M563.096,153.14 C563.096,150.548 562.988,147.632 562.232,145.364 C561.476,143.204 560.288,141.692 558.452,141.692 C555.428,141.8 554.456,144.932 554.456,149.576 C554.456,152.276 555.644,155.084 557.372,158.108 C559.1,161.132 561.368,164.264 563.636,167.612 C566.336,171.608 569.036,175.712 571.088,179.708 C573.14,183.704 574.544,187.808 574.544,192.128 C574.544,197.42 573.68,202.388 571.196,206.06 C568.712,209.732 564.716,212.108 558.344,212.108 C550.892,212.108 546.68,209.3 544.304,204.98 C541.928,200.66 541.388,194.936 541.388,188.996 L552.836,187.916 C552.836,191.264 552.944,194.612 553.808,197.096 C554.564,199.688 555.86,201.416 558.344,201.416 C561.8,201.416 563.096,197.744 563.096,192.668 C563.096,190.076 561.8,187.052 560.072,183.92 C559.1,182.408 558.128,180.788 557.048,179.168 C554.78,175.928 552.296,172.256 549.704,168.26 C547.112,164.264 545.168,160.16 543.98,155.948 C543.332,153.896 543.008,151.736 543.008,149.576 C543.008,145.256 543.98,140.612 546.464,137.048 C548.948,133.592 552.728,131.108 558.236,131 C565.256,130.892 569.36,133.808 571.628,138.02 C573.896,142.34 574.544,147.632 574.544,152.06 L563.096,153.14 Z M580.808,131.864 L592.472,131.864 C597.548,131.864 602.624,133.16 606.512,136.832 C610.4,140.504 612.992,146.552 612.992,155.624 C612.992,164.696 610.4,170.636 606.512,174.308 C602.624,177.98 597.548,179.492 592.472,179.492 L592.472,211.244 L580.808,211.244 L580.808,131.864 Z M592.472,167.612 C596.036,167.612 598.304,166.964 599.6,165.128 C600.896,163.4 601.22,160.484 601.22,156.056 C601.22,151.628 600.896,148.496 599.6,146.552 C598.304,144.608 596.036,143.744 592.472,143.744 L592.472,167.612 Z M615.584,211.244 L627.572,131.864 L641.828,131.864 L653.816,211.244 L642.476,211.244 L640.316,195.044 L629.084,195.044 L626.924,211.244 L615.584,211.244 Z M635.348,157.676 L635.024,155.624 L634.376,155.624 L634.052,157.676 L630.704,182.732 L638.696,182.732 L635.348,157.676 Z M689.564,184.028 L689.564,194.936 C689.456,198.176 688.808,201.092 687.62,203.576 C686.648,205.736 685.136,207.788 682.976,209.408 C680.816,211.136 677.9,212.108 674.012,212.108 C670.124,212.108 667.1,211.136 664.94,209.408 C662.78,207.788 661.376,205.736 660.404,203.576 C659.216,201.092 658.568,198.176 658.46,194.936 L658.46,148.172 C658.568,145.04 659.216,142.124 660.404,139.64 C661.376,137.48 662.78,135.32 664.94,133.7 C667.1,132.08 670.124,131 674.012,131 C677.9,131 680.816,132.08 682.976,133.7 C685.136,135.32 686.648,137.48 687.62,139.64 C688.808,142.124 689.456,145.04 689.564,148.172 L689.564,159.08 L678.656,159.08 L678.656,148.172 C678.656,146.012 678.116,144.5 676.928,143.204 C676.388,142.664 675.416,142.34 674.228,142.34 C672.176,142.34 671.204,143.852 670.664,145.256 C670.34,146.12 670.232,147.092 670.124,148.172 L670.124,194.936 C670.232,197.204 670.88,198.716 671.96,199.904 C672.5,200.444 673.256,200.768 674.228,200.768 C676.712,200.768 677.684,199.472 678.224,197.852 C678.548,197.096 678.656,196.124 678.656,194.936 L678.656,184.028 L689.564,184.028 Z M696.584,131.864 L723.26,131.864 L723.26,143.852 L708.248,143.852 L708.248,164.696 L719.048,164.696 L719.048,177.44 L708.248,177.44 L708.248,199.256 L723.26,199.256 L723.26,211.244 L696.584,211.244 L696.584,131.864 Z" id="HACKERSPACE"></path>
            <g id="logo" transform="translate(131.000000, 39.000000)">
                <g id="wrench">
                    <g id="Layer_1">
                        <path d="M81,64.3791549 C71.9260783,55.8353701 64.9237022,49.2305449 64.1478486,48.465674 C61.8044275,46.1265473 62.5953321,43.9336161 63.2983584,42.2669883 C69.186204,28.4661411 62.5367466,16.0395307 56.2095096,9.37301973 C49.6772232,2.44335702 41.2409072,0.221186696 37.286384,0.0165131136 C33.3611537,-0.188160469 28.0591634,1.50770636 24.3389823,5.22106992 L40.889394,21.7996301 L37.9894104,37.9103649 L21.8490974,40.8342732 L5.29868576,24.2557131 C1.10982051,28.436902 -0.20835387,33.4367852 0.0259882414,37.2086269 C0.260330353,41.0097077 1.66638302,48.4364349 9.37037995,56.1263137 C17.0743769,63.8161926 31.9258082,68.4944459 42.3540322,63.1144546 C43.8479632,62.3542385 46.0742132,61.5355441 48.5640982,63.962388 C49.4522394,64.8302383 55.8214552,71.5503336 64.082685,80.2987603 C49.128396,94.3651503 34.8727088,107.762535 34.8727088,107.762535 C29.1899126,112.645462 29.6000113,121.680338 34.8434161,126.943373 C40.1746991,132.177169 49.1675777,132.498799 54.0594692,126.855656 C54.0594692,126.855656 67.1192475,112.969647 81,98.2372884 C94.8807525,112.969647 107.940531,126.855656 107.940531,126.855656 C112.832422,132.498799 121.825301,132.177169 127.156584,126.943373 C132.399989,121.680338 132.810087,112.645462 127.127291,107.762535 C127.127291,107.762535 112.871604,94.3651503 97.917315,80.2987603 C106.178545,71.5503336 112.547761,64.8302383 113.435902,63.962388 C115.925787,61.5355441 118.152037,62.3542385 119.645968,63.1144546 C130.074192,68.4944459 144.925623,63.8161926 152.62962,56.1263137 C160.333617,48.4364349 161.73967,41.0097077 161.974012,37.2086269 C162.208354,33.4367852 160.890179,28.436902 156.701314,24.2557131 L140.150903,40.8342732 L124.01059,37.9103649 L121.110606,21.7996301 L137.661018,5.22106992 C133.940837,1.50770636 128.638846,-0.188160469 124.713616,0.0165131136 C120.759093,0.221186696 112.322777,2.44335702 105.79049,9.37301973 C99.4632534,16.0395307 92.813796,28.4661411 98.7016416,42.2669883 C99.4046679,43.9336161 100.195573,46.1265473 97.8521514,48.465674 C97.0762978,49.2305449 90.0739217,55.8353701 81,64.3791549 Z M48.1423309,120.247623 C46.2968868,122.060446 43.3090249,122.060446 41.4928735,120.247623 C39.6767221,118.405561 39.6767221,115.423174 41.4928735,113.610351 C43.3383176,111.797528 46.3261796,111.797528 48.1423309,113.610351 C49.9584823,115.452414 49.9584823,118.4348 48.1423309,120.247623 Z M113.857669,120.247623 C115.703113,122.060446 118.690975,122.060446 120.507127,120.247623 C122.323278,118.405561 122.323278,115.423174 120.507127,113.610351 C118.661682,111.797528 115.67382,111.797528 113.857669,113.610351 C112.041518,115.452414 112.041518,118.4348 113.857669,120.247623 Z" id="Shape"></path>
                    </g>
                </g>
            </g>
            <polygon id="Path-128" points="193.98139 195.6165 197.353755 186.87737 202.929966 212.401971 209.667984 188.863536 214.832016 212.40197 220.876221 188.863536 226.749012 212.40197 233.501976 195.6165 262.5 195.6165 262.5 192.438635 231.261951 192.438635 227.543478 201.177765 220.876223 175.596486 215.229249 199.191599 210.441627 175.537164 203.709486 199.588832 198.545455 175.537164 191.475093 192.438635 162 192.438635 162 195.6165"></polygon>
        </g>
    </g>
</svg>