<svg version="1" xmlns="http://www.w3.org/2000/svg" width="346.667" height="346.667" viewBox="0 0 260.000000 260.000000"><path d="M120.5 5.4c-4.9 2.9-30.2 17.5-56 32.5L17.4 65l.1 65.1v65l26 15c14.3 8.3 28.3 16.3 31 17.8 2.8 1.6 16.4 9.4 30.2 17.5L130 260l4.7-2.7c2.7-1.4 8.2-4.6 12.3-7.1 4.1-2.5 9.5-5.6 12-7 2.5-1.4 14.2-8.1 26-15 11.8-6.8 23.5-13.6 26-15 14.4-8.1 30.6-17.6 31.1-18.4.3-.4.5-29.8.5-65.4l-.1-64.5-7.5-4.3c-4.1-2.4-17.7-10.2-30.2-17.5C138.8 5.1 130 0 129.7 0c-.1.1-4.2 2.5-9.2 5.4zm-33 67c11.1 5.1 19.7 18.3 19.7 30.4 0 3.7-.7 8.7-1.6 11-1.2 3.3-1.3 4.9-.5 6.4 1.3 2.5 23.7 24.3 24.9 24.3 1.1 0 25-23.2 25.1-24.5.1-.6.2-1.6.3-2.3.1-.6-.4-2.8-1.2-4.7-3.1-7.6-1.2-19.8 4.5-28.5 5.3-8.2 15.7-14.7 23.7-14.8 4.2-.1 11.7 2.9 12.3 4.9.2.6-3.4 5-8 9.9l-8.3 8.7 1.4 8.2c.8 4.4 1.7 8.4 2.1 8.8.3.3 2.3.9 4.3 1.2 2.1.3 5.6 1 7.9 1.5l4.1.9 8.6-8.9c4.7-4.9 8.9-8.9 9.3-8.9.4 0 1.7 1.9 2.8 4.3 3.1 6.4 2.8 13-1 20.5-7.6 15.3-25 22.9-40 17.6l-5.1-1.9-6.1 6.5c-3.4 3.6-9 9.5-12.4 13.2l-6.2 6.7 13.4 13.2c13.6 13.4 15.1 15.6 14.7 22.1-.5 6.3-6.7 12.6-12.8 12.9-7.6.4-7 .9-24.3-18-5.2-5.6-9.7-9.8-10-9.3-.3.5-4.6 5.4-9.6 10.7-4.9 5.4-9.6 10.7-10.4 11.8-2 2.8-8.8 5.6-12.5 5-8.2-1.3-13.2-7.9-12.3-16.6.4-4.9.7-5.3 14-18.4l13.5-13.3-6.1-6.7c-3.4-3.8-9-9.7-12.4-13.3l-6.1-6.5-5.4 2c-3 1-7.5 1.8-10.4 1.7-20.8-.6-38.3-23.4-30.4-39.7 1.2-2.5 2.5-4.5 2.9-4.5.4 0 4.6 4 9.3 8.9l8.5 8.9 8.3-1.7c4.6-.9 8.5-2.1 8.6-2.6.2-.6.9-4.4 1.7-8.6l1.4-7.5-8.4-8.9C68.8 79.7 65 75.4 65 75c0-2.6 8.9-6 14-5.4 1.9.3 5.8 1.5 8.5 2.8z"/></svg>