<?xml version="1.0" standalone="no"?>
<!DOCTYPE svg PUBLIC "-//W3C//DTD SVG 20010904//EN"
 "http://www.w3.org/TR/2001/REC-SVG-20010904/DTD/svg10.dtd">
<svg version="1.0" xmlns="http://www.w3.org/2000/svg"
 width="260.000000pt" height="260.000000pt" viewBox="0 0 260.000000 260.000000"
 preserveAspectRatio="xMidYMid meet">
<metadata>
Created by potrace 1.11, written by Peter Selinger 2001-2013
</metadata>
<g transform="translate(0.000000,260.000000) scale(0.100000,-0.100000)"
fill="#000000" stroke="none">
<path d="M1205 2546 c-49 -29 -302 -175 -560 -325 l-471 -271 1 -651 0 -650
260 -150 c143 -83 283 -163 310 -178 28 -16 164 -94 302 -175 l253 -146 47 27
c27 14 82 46 123 71 41 25 95 56 120 70 25 14 142 81 260 150 118 68 235 136
260 150 144 81 306 176 311 184 3 4 5 298 5 654 l-1 645 -75 43 c-41 24 -177
102 -302 175 -660 380 -748 431 -751 431 -1 -1 -42 -25 -92 -54z m-330 -670
c111 -51 197 -183 197 -304 0 -37 -7 -87 -16 -110 -12 -33 -13 -49 -5 -64 13
-25 237 -243 249 -243 11 0 250 232 251 245 1 6 2 16 3 23 1 6 -4 28 -12 47
-31 76 -12 198 45 285 53 82 157 147 237 148 42 1 117 -29 123 -49 2 -6 -34
-50 -80 -99 l-83 -87 14 -82 c8 -44 17 -84 21 -88 3 -3 23 -9 43 -12 21 -3 56
-10 79 -15 l41 -9 86 89 c47 49 89 89 93 89 4 0 17 -19 28 -43 31 -64 28 -130
-10 -205 -76 -153 -250 -229 -400 -176 l-51 19 -61 -65 c-34 -36 -90 -95 -124
-132 l-62 -67 134 -132 c136 -134 151 -156 147 -221 -5 -63 -67 -126 -128
-129 -76 -4 -70 -9 -243 180 -52 56 -97 98 -100 93 -3 -5 -46 -54 -96 -107
-49 -54 -96 -107 -104 -118 -20 -28 -88 -56 -125 -50 -82 13 -132 79 -123 166
4 49 7 53 140 184 l135 133 -61 67 c-34 38 -90 97 -124 133 l-61 65 -54 -20
c-30 -10 -75 -18 -104 -17 -208 6 -383 234 -304 397 12 25 25 45 29 45 4 0 46
-40 93 -89 l85 -89 83 17 c46 9 85 21 86 26 2 6 9 44 17 86 l14 75 -84 89
c-45 48 -83 91 -83 95 0 26 89 60 140 54 19 -3 58 -15 85 -28z"/>
</g>
</svg>
