<svg width="20" height="5" viewBox="0 0 20 5" xmlns="http://www.w3.org/2000/svg"><title>tooth</title><path d="M0-5h10V5H0V-5zm20 0h10V5H20V-5zm20 0h10V5H40V-5zm20 0h10V5H60V-5zm20 0h10V5H80V-5zm20 0h10V5h-10V-5zm20 0h10V5h-10V-5zm20 0h10V5h-10V-5zm20 0h10V5h-10V-5zm20 0h10V5h-10V-5zm20 0h10V5h-10V-5zm20 0h10V5h-10V-5zm20 0h10V5h-10V-5zm20 0h10V5h-10V-5zm20 0h10V5h-10V-5zm20 0h10V5h-10V-5zm20 0h10V5h-10V-5zm20 0h10V5h-10V-5zm20 0h10V5h-10V-5zm20 0h10V5h-10V-5zm20 0h10V5h-10V-5zm20 0h10V5h-10V-5zm20 0h10V5h-10V-5zm20 0h10V5h-10V-5zm20 0h10V5h-10V-5zm20 0h10V5h-10V-5zm20 0h10V5h-10V-5zm20 0h10V5h-10V-5zm20 0h10V5h-10V-5zm20 0h10V5h-10V-5zm20 0h10V5h-10V-5zm20 0h10V5h-10V-5zm20 0h10V5h-10V-5zm20 0h10V5h-10V-5zm20 0h10V5h-10V-5zm20 0h10V5h-10V-5zm20 0h10V5h-10V-5zm20 0h10V5h-10V-5zm20 0h10V5h-10V-5zm20 0h10V5h-10V-5zm20 0h10V5h-10V-5zm20 0h10V5h-10V-5zm20 0h10V5h-10V-5zm20 0h10V5h-10V-5zm20 0h10V5h-10V-5zm20 0h10V5h-10V-5zm20 0h10V5h-10V-5zm20 0h10V5h-10V-5zm20 0h10V5h-10V-5zm20 0h10V5h-10V-5zm20 0h10V5h-10V-5zm20 0h10V5h-10V-5zm20 0h10V5h-10V-5zm20 0h10V5h-10V-5zm20 0h10V5h-10V-5zm20 0h10V5h-10V-5zm20 0h10V5h-10V-5zm20 0h10V5h-10V-5zm20 0h10V5h-10V-5zm20 0h10V5h-10V-5zm20 0h10V5h-10V-5zm20 0h10V5h-10V-5zm20 0h10V5h-10V-5zm20 0h10V5h-10V-5zm20 0h10V5h-10V-5zm20 0h10V5h-10V-5zm20 0h10V5h-10V-5zm20 0h10V5h-10V-5zm20 0h10V5h-10V-5zm20 0h10V5h-10V-5zm20 0h10V5h-10V-5zm20 0h10V5h-10V-5z" fill="#000" fill-rule="evenodd"/></svg>