<?xml version="1.0" encoding="UTF-8" standalone="no"?>
<svg width="704px" height="272px" viewBox="0 0 704 272" version="1.1" xmlns="http://www.w3.org/2000/svg" xmlns:xlink="http://www.w3.org/1999/xlink" xmlns:sketch="http://www.bohemiancoding.com/sketch/ns">
    <!-- Generator: Sketch 3.5.2 (25235) - http://www.bohemiancoding.com/sketch -->
    <title>logo</title>
    <desc>Created with Sketch.</desc>
    <defs>
        <filter x="-50%" y="-50%" width="200%" height="200%" filterUnits="objectBoundingBox" id="filter-1">
            <feOffset dx="0" dy="2" in="SourceAlpha" result="shadowOffsetOuter1"></feOffset>
            <feGaussianBlur stdDeviation="2" in="shadowOffsetOuter1" result="shadowBlurOuter1"></feGaussianBlur>
            <feColorMatrix values="0 0 0 0 0   0 0 0 0 0   0 0 0 0 0  0 0 0 0.14 0" in="shadowBlurOuter1" type="matrix" result="shadowMatrixOuter1"></feColorMatrix>
            <feMerge>
                <feMergeNode in="shadowMatrixOuter1"></feMergeNode>
                <feMergeNode in="SourceGraphic"></feMergeNode>
            </feMerge>
        </filter>
        <filter x="-50%" y="-50%" width="200%" height="200%" filterUnits="objectBoundingBox" id="filter-2">
            <feOffset dx="0" dy="2" in="SourceAlpha" result="shadowOffsetOuter1"></feOffset>
            <feGaussianBlur stdDeviation="2" in="shadowOffsetOuter1" result="shadowBlurOuter1"></feGaussianBlur>
            <feColorMatrix values="0 0 0 0 0   0 0 0 0 0   0 0 0 0 0  0 0 0 0.14 0" in="shadowBlurOuter1" type="matrix" result="shadowMatrixOuter1"></feColorMatrix>
            <feMerge>
                <feMergeNode in="shadowMatrixOuter1"></feMergeNode>
                <feMergeNode in="SourceGraphic"></feMergeNode>
            </feMerge>
        </filter>
        <filter x="-50%" y="-50%" width="200%" height="200%" filterUnits="objectBoundingBox" id="filter-3">
            <feOffset dx="0" dy="2" in="SourceAlpha" result="shadowOffsetOuter1"></feOffset>
            <feGaussianBlur stdDeviation="2" in="shadowOffsetOuter1" result="shadowBlurOuter1"></feGaussianBlur>
            <feColorMatrix values="0 0 0 0 0   0 0 0 0 0   0 0 0 0 0  0 0 0 0.14 0" in="shadowBlurOuter1" type="matrix" result="shadowMatrixOuter1"></feColorMatrix>
            <feMerge>
                <feMergeNode in="shadowMatrixOuter1"></feMergeNode>
                <feMergeNode in="SourceGraphic"></feMergeNode>
            </feMerge>
        </filter>
        <filter x="-50%" y="-50%" width="200%" height="200%" filterUnits="objectBoundingBox" id="filter-4">
            <feOffset dx="0" dy="2" in="SourceAlpha" result="shadowOffsetOuter1"></feOffset>
            <feGaussianBlur stdDeviation="2" in="shadowOffsetOuter1" result="shadowBlurOuter1"></feGaussianBlur>
            <feColorMatrix values="0 0 0 0 0   0 0 0 0 0   0 0 0 0 0  0 0 0 0.14 0" in="shadowBlurOuter1" type="matrix" result="shadowMatrixOuter1"></feColorMatrix>
            <feMerge>
                <feMergeNode in="shadowMatrixOuter1"></feMergeNode>
                <feMergeNode in="SourceGraphic"></feMergeNode>
            </feMerge>
        </filter>
        <filter x="-50%" y="-50%" width="200%" height="200%" filterUnits="objectBoundingBox" id="filter-5">
            <feOffset dx="0" dy="2" in="SourceAlpha" result="shadowOffsetOuter1"></feOffset>
            <feGaussianBlur stdDeviation="2" in="shadowOffsetOuter1" result="shadowBlurOuter1"></feGaussianBlur>
            <feColorMatrix values="0 0 0 0 0   0 0 0 0 0   0 0 0 0 0  0 0 0 0.14 0" in="shadowBlurOuter1" type="matrix" result="shadowMatrixOuter1"></feColorMatrix>
            <feMerge>
                <feMergeNode in="shadowMatrixOuter1"></feMergeNode>
                <feMergeNode in="SourceGraphic"></feMergeNode>
            </feMerge>
        </filter>
        <filter x="-50%" y="-50%" width="200%" height="200%" filterUnits="objectBoundingBox" id="filter-6">
            <feOffset dx="0" dy="2" in="SourceAlpha" result="shadowOffsetOuter1"></feOffset>
            <feGaussianBlur stdDeviation="2" in="shadowOffsetOuter1" result="shadowBlurOuter1"></feGaussianBlur>
            <feColorMatrix values="0 0 0 0 0   0 0 0 0 0   0 0 0 0 0  0 0 0 0.14 0" in="shadowBlurOuter1" type="matrix" result="shadowMatrixOuter1"></feColorMatrix>
            <feMerge>
                <feMergeNode in="shadowMatrixOuter1"></feMergeNode>
                <feMergeNode in="SourceGraphic"></feMergeNode>
            </feMerge>
        </filter>
        <filter x="-50%" y="-50%" width="200%" height="200%" filterUnits="objectBoundingBox" id="filter-7">
            <feOffset dx="0" dy="2" in="SourceAlpha" result="shadowOffsetOuter1"></feOffset>
            <feGaussianBlur stdDeviation="2" in="shadowOffsetOuter1" result="shadowBlurOuter1"></feGaussianBlur>
            <feColorMatrix values="0 0 0 0 0   0 0 0 0 0   0 0 0 0 0  0 0 0 0.14 0" in="shadowBlurOuter1" type="matrix" result="shadowMatrixOuter1"></feColorMatrix>
            <feMerge>
                <feMergeNode in="shadowMatrixOuter1"></feMergeNode>
                <feMergeNode in="SourceGraphic"></feMergeNode>
            </feMerge>
        </filter>
        <filter x="-50%" y="-50%" width="200%" height="200%" filterUnits="objectBoundingBox" id="filter-8">
            <feOffset dx="0" dy="2" in="SourceAlpha" result="shadowOffsetOuter1"></feOffset>
            <feGaussianBlur stdDeviation="2" in="shadowOffsetOuter1" result="shadowBlurOuter1"></feGaussianBlur>
            <feColorMatrix values="0 0 0 0 0   0 0 0 0 0   0 0 0 0 0  0 0 0 0.14 0" in="shadowBlurOuter1" type="matrix" result="shadowMatrixOuter1"></feColorMatrix>
            <feMerge>
                <feMergeNode in="shadowMatrixOuter1"></feMergeNode>
                <feMergeNode in="SourceGraphic"></feMergeNode>
            </feMerge>
        </filter>
        <filter x="-50%" y="-50%" width="200%" height="200%" filterUnits="objectBoundingBox" id="filter-9">
            <feOffset dx="0" dy="2" in="SourceAlpha" result="shadowOffsetOuter1"></feOffset>
            <feGaussianBlur stdDeviation="2" in="shadowOffsetOuter1" result="shadowBlurOuter1"></feGaussianBlur>
            <feColorMatrix values="0 0 0 0 0   0 0 0 0 0   0 0 0 0 0  0 0 0 0.14 0" in="shadowBlurOuter1" type="matrix" result="shadowMatrixOuter1"></feColorMatrix>
            <feMerge>
                <feMergeNode in="shadowMatrixOuter1"></feMergeNode>
                <feMergeNode in="SourceGraphic"></feMergeNode>
            </feMerge>
        </filter>
    </defs>
    <g id="Page-1" stroke="none" stroke-width="1" fill="none" fill-rule="evenodd" sketch:type="MSPage">
        <g id="web" sketch:type="MSArtboardGroup" transform="translate(-366.000000, -93.000000)" fill="#FFFFFF">
            <g id="header" sketch:type="MSLayerGroup">
                <g id="logo" transform="translate(366.000000, 93.000000)" sketch:type="MSShapeGroup">
                    <g id="line" transform="translate(4.000000, 104.567901)">
                        <path d="M24.8653597,54.7778022 L13.9867648,54.7778022 L13.9867648,96.2172743 L0,96.2172743 L0,1.0359868 L13.9867648,1.0359868 L13.9867648,40.4034853 L24.8653597,40.4034853 L24.8653597,1.0359868 L38.8521245,1.0359868 L38.8521245,96.2172743 L24.8653597,96.2172743 L24.8653597,54.7778022 Z M45.3274786,96.2172743 L59.7027647,1.0359868 L76.7976995,1.0359868 L91.1729856,96.2172743 L77.574742,96.2172743 L74.9846004,76.7925217 L61.5158639,76.7925217 L58.9257222,96.2172743 L45.3274786,96.2172743 Z M69.0272746,31.9860925 L68.6387534,29.5256239 L67.8617109,29.5256239 L67.4731896,31.9860925 L63.4584701,62.0297098 L73.0419941,62.0297098 L69.0272746,31.9860925 Z M134.03983,63.58369 L134.03983,76.6630234 C133.910323,80.5479739 133.13328,84.0444293 131.708702,87.0228914 C130.543138,89.6128584 128.730039,92.0733271 126.139898,94.0158023 C123.549756,96.0877759 120.053065,97.2532611 115.39081,97.2532611 C110.728555,97.2532611 107.102357,96.0877759 104.512215,94.0158023 C101.922073,92.0733271 100.238481,89.6128584 99.0729176,87.0228914 C97.6483397,84.0444293 96.8712972,80.5479739 96.7417901,76.6630234 L96.7417901,20.5902377 C96.8712972,16.8347855 97.6483397,13.3383301 99.0729176,10.359868 C100.238481,7.76990102 101.922073,5.17993401 104.512215,3.23745876 C107.102357,1.2949835 110.728555,0 115.39081,0 C120.053065,0 123.549756,1.2949835 126.139898,3.23745876 C128.730039,5.17993401 130.543138,7.76990102 131.708702,10.359868 C133.13328,13.3383301 133.910323,16.8347855 134.03983,20.5902377 L134.03983,33.6695711 L120.959614,33.6695711 L120.959614,20.5902377 C120.959614,18.0002707 120.312079,16.1872938 118.887501,14.6333136 C118.239966,13.9858218 117.074402,13.5973268 115.649824,13.5973268 C113.18919,13.5973268 112.023626,15.4103037 111.37609,17.0937822 C110.987569,18.129769 110.858062,19.2952542 110.728555,20.5902377 L110.728555,76.6630234 C110.858062,79.3824887 111.635105,81.1954656 112.930175,82.6199475 C113.577711,83.2674392 114.48426,83.6559343 115.649824,83.6559343 C118.628487,83.6559343 119.794051,82.1019541 120.441586,80.1594788 C120.830107,79.2529904 120.959614,78.0875052 120.959614,76.6630234 L120.959614,63.58369 L134.03983,63.58369 Z M156.444555,1.0359868 L156.444555,34.3170628 L156.962583,34.3170628 L157.610119,32.7630826 L169.265756,1.0359868 L182.864,1.0359868 L170.042798,32.3745876 L184.547592,96.2172743 L170.949348,96.2172743 L161.236317,54.7778022 L160.847796,52.8353269 L160.459274,52.8353269 L159.682232,54.7778022 L156.444555,62.5477032 L156.444555,96.2172743 L142.45779,96.2172743 L142.45779,1.0359868 L156.444555,1.0359868 Z M191.022946,1.0359868 L223.011195,1.0359868 L223.011195,15.4103037 L205.009711,15.4103037 L205.009711,40.4034853 L217.960419,40.4034853 L217.960419,55.6842906 L205.009711,55.6842906 L205.009711,81.8429574 L223.011195,81.8429574 L223.011195,96.2172743 L191.022946,96.2172743 L191.022946,1.0359868 Z M255.776487,96.2172743 L248.52409,56.0727857 L244.768385,56.0727857 L244.768385,96.2172743 L230.78162,96.2172743 L230.78162,1.0359868 L244.768385,1.0359868 C261.474798,1.0359868 268.597688,10.4893664 268.597688,28.4896371 C268.597688,37.9430166 266.137053,46.4899078 260.827263,50.1158616 L269.763251,96.2172743 L255.776487,96.2172743 Z M244.768385,43.1229506 C246.710991,43.1229506 249.301133,42.8639539 251.373246,41.050977 C253.445359,39.2380001 255.128951,35.7415447 255.128951,29.0076305 C255.128951,22.2737162 253.445359,18.6477624 251.373246,16.8347855 C249.301133,15.0218086 246.710991,14.8923103 244.768385,14.8923103 L244.768385,43.1229506 Z" id="HACKER" filter="url(#filter-1)"></path>
                        <path d="M454.672899,26.5506424 C454.672899,23.442682 454.543392,19.9462265 453.636842,17.2267612 C452.730293,14.6367942 451.305715,12.8238173 449.104094,12.8238173 C445.477896,12.9533156 444.312332,16.7087678 444.312332,22.2771968 C444.312332,25.5146556 445.73691,28.8816127 447.809023,32.5075665 C449.881137,36.1335203 452.600785,39.8889725 455.320434,43.9034213 C458.558111,48.6948603 461.795788,53.6157976 464.256423,58.4072366 C466.717057,63.1986755 468.400649,68.1196128 468.400649,73.2995469 C468.400649,79.644966 467.364593,85.6018901 464.38593,90.004834 C461.407267,94.407778 456.615505,97.2567417 448.974587,97.2567417 C440.038599,97.2567417 434.987822,93.8897846 432.138667,88.7098505 C429.289511,83.5299165 428.641975,76.666504 428.641975,69.5440947 L442.369726,68.2491112 C442.369726,72.2635601 442.499233,76.2780089 443.53529,79.256471 C444.441839,82.3644314 445.995924,84.436405 448.974587,84.436405 C453.118814,84.436405 454.672899,80.0334611 454.672899,73.9470386 C454.672899,70.8390782 453.118814,67.2131244 451.0467,63.4576722 C449.881137,61.6446953 448.715573,59.7022201 447.420502,57.7597448 C444.700853,53.8747943 441.722191,49.4718504 438.614021,44.6804114 C435.505851,39.8889725 433.174723,34.9680352 431.750145,29.9175995 C430.973103,27.4571309 430.584582,24.8671639 430.584582,22.2771968 C430.584582,17.0972628 431.750145,11.5288338 434.728808,7.25538821 C437.707471,3.111441 442.240219,0.132978946 448.84508,0.00348059536 C457.26304,-0.126017755 462.18431,3.3704377 464.903958,8.42087336 C467.623607,13.6008074 468.400649,19.9462265 468.400649,25.2556589 L454.672899,26.5506424 Z M488.565051,1.0394674 L502.551816,1.0394674 C508.638649,1.0394674 514.725481,2.5934476 519.387736,6.99639151 C524.049991,11.3993354 527.158161,18.651243 527.158161,29.5291045 C527.158161,40.4069659 524.049991,47.5293752 519.387736,51.9323191 C514.725481,56.335263 508.638649,58.1482399 502.551816,58.1482399 L502.551816,96.2207549 L488.565051,96.2207549 L488.565051,1.0394674 Z M502.551816,43.9034213 C506.825549,43.9034213 509.545198,43.1264312 511.099283,40.9249593 C512.653368,38.8529857 513.041889,35.3565302 513.041889,30.0470979 C513.041889,24.7376655 512.653368,20.9822133 511.099283,18.651243 C509.545198,16.3202727 506.825549,15.2842859 502.551816,15.2842859 L502.551816,43.9034213 Z M542.919322,96.2207549 L557.294608,1.0394674 L574.389543,1.0394674 L588.764829,96.2207549 L575.166585,96.2207549 L572.576444,76.7960023 L559.107707,76.7960023 L556.517566,96.2207549 L542.919322,96.2207549 Z M566.619118,31.9895731 L566.230597,29.5291045 L565.453554,29.5291045 L565.065033,31.9895731 L561.050313,62.0331904 L570.633838,62.0331904 L566.619118,31.9895731 Z M644.284664,63.5871706 L644.284664,76.666504 C644.155157,80.5514545 643.378114,84.0479099 641.953536,87.026372 C640.787973,89.616339 638.974873,92.0768077 636.384732,94.0192829 C633.79459,96.0912565 630.297899,97.2567417 625.635644,97.2567417 C620.973389,97.2567417 617.347191,96.0912565 614.757049,94.0192829 C612.166908,92.0768077 610.483315,89.616339 609.317752,87.026372 C607.893174,84.0479099 607.116131,80.5514545 606.986624,76.666504 L606.986624,20.5937183 C607.116131,16.8382661 607.893174,13.3418107 609.317752,10.3633486 C610.483315,7.77338161 612.166908,5.18341461 614.757049,3.24093935 C617.347191,1.2984641 620.973389,0.00348059536 625.635644,0.00348059536 C630.297899,0.00348059536 633.79459,1.2984641 636.384732,3.24093935 C638.974873,5.18341461 640.787973,7.77338161 641.953536,10.3633486 C643.378114,13.3418107 644.155157,16.8382661 644.284664,20.5937183 L644.284664,33.6730517 L631.204449,33.6730517 L631.204449,20.5937183 C631.204449,18.0037513 630.556913,16.1907744 629.132335,14.6367942 C628.4848,13.9893024 627.319236,13.6008074 625.894658,13.6008074 C623.434024,13.6008074 622.26846,15.4137843 621.620925,17.0972628 C621.232403,18.1332496 621.102896,19.2987348 620.973389,20.5937183 L620.973389,76.666504 C621.102896,79.3859693 621.879939,81.1989462 623.175009,82.6234281 C623.822545,83.2709198 624.729094,83.6594149 625.894658,83.6594149 C628.873321,83.6594149 630.038885,82.1054347 630.68642,80.1629594 C631.074941,79.256471 631.204449,78.0909858 631.204449,76.666504 L631.204449,63.5871706 L644.284664,63.5871706 Z M665.355615,1.0394674 L697.343864,1.0394674 L697.343864,15.4137843 L679.34238,15.4137843 L679.34238,40.4069659 L692.293088,40.4069659 L692.293088,55.6877712 L679.34238,55.6877712 L679.34238,81.846438 L697.343864,81.846438 L697.343864,96.2207549 L665.355615,96.2207549 L665.355615,1.0394674 Z" id="SPACE" filter="url(#filter-2)"></path>
                        <path d="M347.640481,53.487603 C356.381331,45.2468426 363.836455,38.2088685 364.530633,37.5233072 C366.25834,35.7957168 365.675239,34.1761008 365.156926,32.9451926 C360.816063,22.7524093 365.718431,13.5745853 370.38324,8.65095262 C375.199223,3.53296606 381.418968,1.89175518 384.334473,1.74059102 C387.228382,1.58942686 391.137319,2.8419299 393.880053,5.58447966 L381.678124,17.8287766 L383.816161,29.7275555 L395.715742,31.8870435 L407.917672,19.6427465 C411.005948,22.7308144 411.977783,26.4235389 411.805012,29.2092784 C411.632242,32.0166128 410.595618,37.5017123 404.915781,43.1811657 C399.235945,48.8606192 388.286602,52.3158 380.598307,48.3423421 C379.496894,47.7808752 377.855572,47.1762185 376.019884,48.9685936 C375.220849,49.7507537 368.404356,56.9692275 360.37871,65.4920154 C369.498482,74.0836178 377.182452,81.3177238 377.182452,81.3177238 C381.372141,84.9240688 381.069793,91.5968867 377.204049,95.4839651 C373.273515,99.3494486 366.64344,99.5869923 363.036852,95.4191805 C363.036852,95.4191805 356.042554,87.9692348 347.640481,79.0319512 C339.238408,87.9692348 332.24411,95.4191805 332.24411,95.4191805 C328.637522,99.5869923 322.007447,99.3494486 318.076914,95.4839651 C314.21117,91.5968867 313.908821,84.9240688 318.09851,81.3177238 C318.09851,81.3177238 325.782481,74.0836178 334.902253,65.4920154 C326.876606,56.9692275 320.060114,49.7507537 319.261079,48.9685936 C317.42539,47.1762185 315.784069,47.7808752 314.682656,48.3423421 C306.99436,52.3158 296.045018,48.8606192 290.365181,43.1811657 C284.685345,37.5017123 283.648721,32.0166128 283.47595,29.2092784 C283.303179,26.4235389 284.275015,22.7308144 287.363291,19.6427465 L299.565221,31.8870435 L311.464802,29.7275555 L313.602839,17.8287766 L301.400909,5.58447966 C304.143644,2.8419299 308.052581,1.58942686 310.94649,1.74059102 C313.861995,1.89175518 320.08174,3.53296606 324.897723,8.65095262 C329.562531,13.5745853 334.4649,22.7524093 330.124036,32.9451926 C329.605724,34.1761008 329.022623,35.7957168 330.75033,37.5233072 C331.444507,38.2088685 338.899632,45.2468426 347.640481,53.487603 Z M367.399312,90.5387376 C368.759881,91.8776201 370.962708,91.8776201 372.30168,90.5387376 C373.640653,89.1782601 373.640653,86.9755824 372.30168,85.6366998 C370.941111,84.2978173 368.738285,84.2978173 367.399312,85.6366998 C366.060339,86.9971773 366.060339,89.199855 367.399312,90.5387376 Z M327.88165,90.5387376 C326.521081,91.8776201 324.318255,91.8776201 322.979282,90.5387376 C321.640309,89.1782601 321.640309,86.9755824 322.979282,85.6366998 C324.339851,84.2978173 326.542678,84.2978173 327.88165,85.6366998 C329.220623,86.9971773 329.220623,89.199855 327.88165,90.5387376 Z" id="Shape" filter="url(#filter-3)"></path>
                        <g id="baseline" transform="translate(145.448122, 131.325040)">
                            <path d="M0.744293574,17.0440423 L60.2877795,17.0440423 L61.032073,17.0440423 L61.032073,15.5555556 L60.2877795,15.5555556 L0.744293574,15.5555556 L0,15.5555556 L0,17.0440423 L0.744293574,17.0440423 L0.744293574,17.0440423 Z" id="Shape" filter="url(#filter-4)"></path>
                            <path d="M352.472689,17.0440423 L412.016175,17.0440423 L412.760468,17.0440423 L412.760468,15.5555556 L412.016175,15.5555556 L352.472689,15.5555556 L351.728395,15.5555556 L351.728395,17.0440423 L352.472689,17.0440423 L352.472689,17.0440423 Z" id="Shape" filter="url(#filter-5)"></path>
                            <path d="M82.0987654,3.47685492 L86.2251427,3.47685492 L86.2251427,27.738425 L91.6887719,27.738425 L91.6887719,31.5591447 L82.0987654,31.5591447 L82.0987654,3.47685492 Z M93.3698885,3.47685492 L102.807066,3.47685492 L102.807066,7.71785378 L97.4962658,7.71785378 L97.4962658,15.0918428 L101.316985,15.0918428 L101.316985,19.600292 L97.4962658,19.600292 L97.4962658,27.3181458 L102.807066,27.3181458 L102.807066,31.5591447 L93.3698885,31.5591447 L93.3698885,3.47685492 Z M104.029696,31.5591447 L108.270695,3.47685492 L113.314045,3.47685492 L117.555044,31.5591447 L113.543288,31.5591447 L112.779145,25.8280651 L108.805596,25.8280651 L108.041452,31.5591447 L104.029696,31.5591447 Z M111.021613,12.608375 L110.906992,11.8824382 L110.677749,11.8824382 L110.563127,12.608375 L109.378704,21.4724447 L112.206037,21.4724447 L111.021613,12.608375 Z M126.839393,31.5591447 L124.69979,19.7149136 L123.591781,19.7149136 L123.591781,31.5591447 L119.465404,31.5591447 L119.465404,3.47685492 L123.591781,3.47685492 C128.52051,3.47685492 130.621906,6.26598029 130.621906,11.5767807 C130.621906,14.365906 129.895969,16.887581 128.329474,17.9573825 L130.96577,31.5591447 L126.839393,31.5591447 Z M123.591781,15.8941939 C124.164889,15.8941939 124.929033,15.8177795 125.540348,15.2828788 C126.151663,14.747978 126.648357,13.7163837 126.648357,11.7296095 C126.648357,9.74283521 126.151663,8.6730337 125.540348,8.13813294 C124.929033,7.60323219 124.164889,7.56502499 123.591781,7.56502499 L123.591781,15.8941939 Z M137.613823,16.9257882 L137.269958,15.6267435 L137.040715,15.6267435 L137.040715,31.5591447 L133.258202,31.5591447 L133.258202,3.47685492 L136.926093,3.47685492 L140.937849,18.1102113 L141.281713,19.409256 L141.510957,19.409256 L141.510957,3.47685492 L145.293469,3.47685492 L145.293469,31.5591447 L141.625578,31.5591447 L137.613823,16.9257882 Z M167.339022,34.921378 L164.206032,34.921378 L152.858494,0 L155.876863,0 L167.339022,34.921378 Z M181.743135,31.5591447 L179.106838,13.9074197 L178.95401,12.7229966 L178.724766,12.7229966 L178.724766,31.5591447 L174.904047,31.5591447 L174.904047,3.47685492 L179.947397,3.47685492 L182.392657,16.3144731 L182.583693,17.8045538 L182.660108,17.8045538 L182.851144,16.3144731 L185.296404,3.47685492 L190.339754,3.47685492 L190.339754,31.5591447 L186.519035,31.5591447 L186.519035,12.7229966 L186.289791,12.7229966 L186.136963,13.9074197 L183.500666,31.5591447 L181.743135,31.5591447 Z M192.250114,31.5591447 L196.491113,3.47685492 L201.534463,3.47685492 L205.775462,31.5591447 L201.763706,31.5591447 L200.999562,25.8280651 L197.026014,25.8280651 L196.26187,31.5591447 L192.250114,31.5591447 Z M199.242031,12.608375 L199.12741,11.8824382 L198.898166,11.8824382 L198.783545,12.608375 L197.599122,21.4724447 L200.426454,21.4724447 L199.242031,12.608375 Z M211.812199,3.47685492 L211.812199,13.2961045 L211.965028,13.2961045 L212.156064,12.8376182 L215.594711,3.47685492 L219.606467,3.47685492 L215.823955,12.7229966 L220.103161,31.5591447 L216.091405,31.5591447 L213.225865,19.3328416 L213.111244,18.7597337 L212.996622,18.7597337 L212.767379,19.3328416 L211.812199,21.6252735 L211.812199,31.5591447 L207.685822,31.5591447 L207.685822,3.47685492 L211.812199,3.47685492 Z M222.013521,3.47685492 L231.450698,3.47685492 L231.450698,7.71785378 L226.139898,7.71785378 L226.139898,15.0918428 L229.960617,15.0918428 L229.960617,19.600292 L226.139898,19.600292 L226.139898,27.3181458 L231.450698,27.3181458 L231.450698,31.5591447 L222.013521,31.5591447 L222.013521,3.47685492 Z M252.732107,34.921378 L249.599117,34.921378 L238.251579,0 L241.269948,0 L252.732107,34.921378 Z M267.13622,11.0036727 C267.13622,10.0867 267.098013,9.05510567 266.830563,8.25275453 C266.563112,7.48861059 266.142833,6.95370984 265.493311,6.95370984 C264.423509,6.99191704 264.079644,8.09992575 264.079644,9.74283521 C264.079644,10.6980151 264.499923,11.6914023 265.111239,12.7612038 C265.722554,13.8310053 266.524905,14.939014 267.327256,16.1234371 C268.282436,17.5371034 269.237616,18.9889769 269.963553,20.4026432 C270.689489,21.8163094 271.186183,23.2681829 271.186183,24.7964708 C271.186183,26.6686234 270.880525,28.4261545 270.00176,29.7251992 C269.122994,31.0242439 267.709328,31.8648022 265.455103,31.8648022 C262.818807,31.8648022 261.328726,30.8714151 260.488168,29.3431272 C259.647609,27.8148394 259.456574,25.7898579 259.456574,23.6884621 L263.506536,23.3063901 C263.506536,24.4908132 263.544744,25.6752363 263.850401,26.5540019 C264.117852,27.4709746 264.576338,28.0822897 265.455103,28.0822897 C266.677734,28.0822897 267.13622,26.783245 267.13622,24.9875068 C267.13622,24.0705341 266.677734,23.0007325 266.066419,21.8927238 C265.722554,21.3578231 265.378689,20.7847151 264.996617,20.2116072 C264.194266,19.0653913 263.3155,17.7663466 262.398528,16.3526803 C261.481555,14.939014 260.793825,13.4871405 260.373546,11.9970598 C260.144303,11.2711231 260.029681,10.5069792 260.029681,9.74283521 C260.029681,8.21454734 260.373546,6.57163787 261.252312,5.31080037 C262.131077,4.08817007 263.468329,3.20940454 265.416896,3.17119734 C267.900364,3.13299015 269.352238,4.16458446 270.154589,5.65466514 C270.95694,7.18295302 271.186183,9.05510567 271.186183,10.6216007 L267.13622,11.0036727 Z M280.737982,19.3328416 L277.528578,19.3328416 L277.528578,31.5591447 L273.4022,31.5591447 L273.4022,3.47685492 L277.528578,3.47685492 L277.528578,15.0918428 L280.737982,15.0918428 L280.737982,3.47685492 L284.864359,3.47685492 L284.864359,31.5591447 L280.737982,31.5591447 L280.737982,19.3328416 Z M286.774719,31.5591447 L291.015718,3.47685492 L296.059068,3.47685492 L300.300067,31.5591447 L296.288311,31.5591447 L295.524167,25.8280651 L291.550619,25.8280651 L290.786475,31.5591447 L286.774719,31.5591447 Z M293.766636,12.608375 L293.652015,11.8824382 L293.422772,11.8824382 L293.30815,12.608375 L292.123727,21.4724447 L294.951059,21.4724447 L293.766636,12.608375 Z M309.584416,31.5591447 L307.444813,19.7149136 L306.336804,19.7149136 L306.336804,31.5591447 L302.210427,31.5591447 L302.210427,3.47685492 L306.336804,3.47685492 C311.265533,3.47685492 313.366928,6.26598029 313.366928,11.5767807 C313.366928,14.365906 312.640992,16.887581 311.074497,17.9573825 L313.710793,31.5591447 L309.584416,31.5591447 Z M306.336804,15.8941939 C306.909912,15.8941939 307.674056,15.8177795 308.285371,15.2828788 C308.896686,14.747978 309.39338,13.7163837 309.39338,11.7296095 C309.39338,9.74283521 308.896686,8.6730337 308.285371,8.13813294 C307.674056,7.60323219 306.909912,7.56502499 306.336804,7.56502499 L306.336804,15.8941939 Z M316.003225,3.47685492 L325.440403,3.47685492 L325.440403,7.71785378 L320.129602,7.71785378 L320.129602,15.0918428 L323.950322,15.0918428 L323.950322,19.600292 L320.129602,19.600292 L320.129602,27.3181458 L325.440403,27.3181458 L325.440403,31.5591447 L316.003225,31.5591447 L316.003225,3.47685492 Z" id="LEARN-\-MAKE-\-SHARE" filter="url(#filter-6)"></path>
                        </g>
                    </g>
                    <g id="liege" transform="translate(258.938272, 0.000000)">
                        <path d="M168.196368,-1.70530257e-13 L168.196368,68.7072553 L26.7901235,84.0637218 L26.7901235,15.3564664 L168.196368,-1.70530257e-13 Z M61.3408787,24.8506711 L61.3408787,61.8405662 L69.6421695,60.9063874 L69.6421695,66.7315677 L55.0713724,68.3712803 L55.0713724,25.5562048 L61.3408787,24.8506711 Z M78.4659192,22.9235189 L78.4659192,65.7385944 L72.1964128,66.4441281 L72.1964128,23.6290526 L78.4659192,22.9235189 Z M97.4485911,20.7873196 L97.4485911,27.2532698 L89.3795043,28.1613178 L89.3795043,39.4039159 L95.1846027,38.7506439 L95.1846027,45.6243567 L89.3795043,46.2776287 L89.3795043,58.044493 L97.4485911,57.136445 L97.4485911,63.6023952 L83.1099979,65.2159768 L83.1099979,22.4009013 L97.4485911,20.7873196 Z M110.974471,28.0612184 C110.974471,26.8961823 110.742267,26.1067879 110.161757,25.4730935 C109.871502,25.214498 109.407094,25.0920044 108.884635,25.1507989 C107.781666,25.2749205 107.259208,26.1492403 107.027004,26.9326446 C106.852851,27.4182572 106.7948,27.9490561 106.7948,28.5315741 L106.7948,54.2788713 C106.7948,55.5021591 107.085055,56.2850208 107.665564,56.8604634 C107.955819,57.1190589 108.362176,57.2480852 108.884635,57.1892908 C109.987604,57.0651691 110.510063,56.307353 110.742267,55.407445 C110.91642,54.9800843 110.974471,54.4492853 110.974471,53.8085155 L110.974471,46.0610256 L108.478278,46.3419325 L108.478278,41.0410184 L117.243977,40.0545778 L117.243977,61.3747379 L113.528714,61.7928319 L112.774051,59.8389441 C111.613031,61.4258936 109.929553,62.6638749 107.897768,62.8925201 C105.865984,63.1211653 104.47276,62.7536843 103.427843,61.9392444 C102.382925,61.1830563 101.686313,60.1546647 101.221905,59.0418904 C100.699446,57.7608934 100.467242,56.2142255 100.525293,54.4601387 L100.525293,29.2371078 C100.583344,27.5412728 100.93165,25.9292778 101.570211,24.5176264 C102.09267,23.2937959 102.847333,22.0438345 104.008352,21.039403 C105.169372,20.0349716 106.7948,19.2695374 108.884635,19.0343595 C110.974471,18.7991816 112.541847,19.2053162 113.702867,19.9484389 C114.863887,20.6915615 115.6766,21.7651395 116.199059,22.8713811 C116.83762,24.1393127 117.185926,25.6729151 117.243977,27.3556847 L117.243977,33.9381385 L110.974471,34.6436721 L110.974471,28.0612184 Z M136.168598,16.4299958 L136.168598,22.895946 L128.099511,23.803994 L128.099511,35.0465921 L133.904609,34.3933201 L133.904609,41.2670329 L128.099511,41.9203049 L128.099511,53.6871692 L136.168598,52.7791212 L136.168598,59.2450714 L121.830005,60.858653 L121.830005,18.0435775 L136.168598,16.4299958 Z" id="Rectangle-1" filter="url(#filter-7)"></path>
                        <path d="M195.166808,73.7330593 L172.839506,77.575662 L172.839506,12.484578 L195.166808,8.64197531 L195.166808,73.7330593 Z" id="Rectangle-1" filter="url(#filter-8)"></path>
                        <path d="M22.3273018,72.0046642 L0,75.8472669 L0,10.7561829 L22.3273018,6.91358025 L22.3273018,72.0046642 Z" id="Rectangle-1" filter="url(#filter-9)"></path>
                    </g>
                </g>
            </g>
        </g>
    </g>
</svg>