<?xml version="1.0" encoding="UTF-8" standalone="no"?>
<svg width="20px" height="5px" viewBox="0 0 20 5" version="1.1" xmlns="http://www.w3.org/2000/svg" xmlns:xlink="http://www.w3.org/1999/xlink" xmlns:sketch="http://www.bohemiancoding.com/sketch/ns">
    <!-- Generator: Sketch 3.5.2 (25235) - http://www.bohemiancoding.com/sketch -->
    <title>tooth</title>
    <desc>Created with Sketch.</desc>
    <defs></defs>
    <g id="Page-1" stroke="none" stroke-width="1" fill="none" fill-rule="evenodd" sketch:type="MSPage">
        <g id="web" sketch:type="MSArtboardGroup" fill="#000000">
            <g id="header" sketch:type="MSLayerGroup" transform="translate(0.000000, -5.000000)">
                <path d="M0,0 L10,0 L10,10 L0,10 L0,0 L0,0 Z M20,0 L30,0 L30,10 L20,10 L20,0 L20,0 Z M40,0 L50,0 L50,10 L40,10 L40,0 L40,0 Z M60,0 L70,0 L70,10 L60,10 L60,0 L60,0 Z M80,0 L90,0 L90,10 L80,10 L80,0 L80,0 Z M100,0 L110,0 L110,10 L100,10 L100,0 L100,0 Z M120,0 L130,0 L130,10 L120,10 L120,0 L120,0 Z M140,0 L150,0 L150,10 L140,10 L140,0 L140,0 Z M160,0 L170,0 L170,10 L160,10 L160,0 L160,0 Z M180,0 L190,0 L190,10 L180,10 L180,0 L180,0 Z M200,0 L210,0 L210,10 L200,10 L200,0 L200,0 Z M220,0 L230,0 L230,10 L220,10 L220,0 L220,0 Z M240,0 L250,0 L250,10 L240,10 L240,0 L240,0 Z M260,0 L270,0 L270,10 L260,10 L260,0 L260,0 Z M280,0 L290,0 L290,10 L280,10 L280,0 L280,0 Z M300,0 L310,0 L310,10 L300,10 L300,0 L300,0 Z M320,0 L330,0 L330,10 L320,10 L320,0 L320,0 Z M340,0 L350,0 L350,10 L340,10 L340,0 L340,0 Z M360,0 L370,0 L370,10 L360,10 L360,0 L360,0 Z M380,0 L390,0 L390,10 L380,10 L380,0 L380,0 Z M400,0 L410,0 L410,10 L400,10 L400,0 L400,0 Z M420,0 L430,0 L430,10 L420,10 L420,0 L420,0 Z M440,0 L450,0 L450,10 L440,10 L440,0 L440,0 Z M460,0 L470,0 L470,10 L460,10 L460,0 L460,0 Z M480,0 L490,0 L490,10 L480,10 L480,0 L480,0 Z M500,0 L510,0 L510,10 L500,10 L500,0 L500,0 Z M520,0 L530,0 L530,10 L520,10 L520,0 L520,0 Z M540,0 L550,0 L550,10 L540,10 L540,0 L540,0 Z M560,0 L570,0 L570,10 L560,10 L560,0 L560,0 Z M580,0 L590,0 L590,10 L580,10 L580,0 L580,0 Z M600,0 L610,0 L610,10 L600,10 L600,0 L600,0 Z M620,0 L630,0 L630,10 L620,10 L620,0 L620,0 Z M640,0 L650,0 L650,10 L640,10 L640,0 L640,0 Z M660,0 L670,0 L670,10 L660,10 L660,0 L660,0 Z M680,0 L690,0 L690,10 L680,10 L680,0 L680,0 Z M700,0 L710,0 L710,10 L700,10 L700,0 L700,0 Z M720,0 L730,0 L730,10 L720,10 L720,0 L720,0 Z M740,0 L750,0 L750,10 L740,10 L740,0 L740,0 Z M760,0 L770,0 L770,10 L760,10 L760,0 L760,0 Z M780,0 L790,0 L790,10 L780,10 L780,0 L780,0 Z M800,0 L810,0 L810,10 L800,10 L800,0 L800,0 Z M820,0 L830,0 L830,10 L820,10 L820,0 L820,0 Z M840,0 L850,0 L850,10 L840,10 L840,0 L840,0 Z M860,0 L870,0 L870,10 L860,10 L860,0 L860,0 Z M880,0 L890,0 L890,10 L880,10 L880,0 L880,0 Z M900,0 L910,0 L910,10 L900,10 L900,0 L900,0 Z M920,0 L930,0 L930,10 L920,10 L920,0 L920,0 Z M940,0 L950,0 L950,10 L940,10 L940,0 L940,0 Z M960,0 L970,0 L970,10 L960,10 L960,0 L960,0 Z M980,0 L990,0 L990,10 L980,10 L980,0 L980,0 Z M1000,0 L1010,0 L1010,10 L1000,10 L1000,0 L1000,0 Z M1020,0 L1030,0 L1030,10 L1020,10 L1020,0 L1020,0 Z M1040,0 L1050,0 L1050,10 L1040,10 L1040,0 L1040,0 Z M1060,0 L1070,0 L1070,10 L1060,10 L1060,0 L1060,0 Z M1080,0 L1090,0 L1090,10 L1080,10 L1080,0 L1080,0 Z M1100,0 L1110,0 L1110,10 L1100,10 L1100,0 L1100,0 Z M1120,0 L1130,0 L1130,10 L1120,10 L1120,0 L1120,0 Z M1140,0 L1150,0 L1150,10 L1140,10 L1140,0 L1140,0 Z M1160,0 L1170,0 L1170,10 L1160,10 L1160,0 L1160,0 Z M1180,0 L1190,0 L1190,10 L1180,10 L1180,0 L1180,0 Z M1200,0 L1210,0 L1210,10 L1200,10 L1200,0 L1200,0 Z M1220,0 L1230,0 L1230,10 L1220,10 L1220,0 L1220,0 Z M1240,0 L1250,0 L1250,10 L1240,10 L1240,0 L1240,0 Z M1260,0 L1270,0 L1270,10 L1260,10 L1260,0 L1260,0 Z M1280,0 L1290,0 L1290,10 L1280,10 L1280,0 L1280,0 Z M1300,0 L1310,0 L1310,10 L1300,10 L1300,0 L1300,0 Z M1320,0 L1330,0 L1330,10 L1320,10 L1320,0 L1320,0 Z M1340,0 L1350,0 L1350,10 L1340,10 L1340,0 L1340,0 Z M1360,0 L1370,0 L1370,10 L1360,10 L1360,0 L1360,0 Z M1380,0 L1390,0 L1390,10 L1380,10 L1380,0 L1380,0 Z M1400,0 L1410,0 L1410,10 L1400,10 L1400,0 L1400,0 Z M1420,0 L1430,0 L1430,10 L1420,10 L1420,0 L1420,0 Z" id="teeth" sketch:type="MSShapeGroup"></path>
            </g>
        </g>
    </g>
</svg>